Bodoni-96-Bold.ufo
<glyph name="exclam" format="2">
  <advance width="1546"/>
  <unicode hex="0021"/>
  <outline>
    <contour>
      <point x="1133" y="2618" type="curve" smooth="yes"/>
      <point x="1087" y="2020"/>
      <point x="774.001" y="1569"/>
      <point x="774.001" y="1057" type="curve"/>
      <point x="765.001" y="1057" type="line"/>
      <point x="765.001" y="1569"/>
      <point x="451.001" y="2020"/>
      <point x="405.001" y="2618" type="curve" smooth="yes"/>
      <point x="403.001" y="2646"/>
      <point x="405.001" y="2672"/>
      <point x="405.001" y="2696" type="curve" smooth="yes"/>
      <point x="405.001" y="2925"/>
      <point x="516.001" y="3104"/>
      <point x="770.001" y="3104" type="curve" smooth="yes"/>
      <point x="1024" y="3104"/>
      <point x="1138" y="2925"/>
      <point x="1138" y="2696" type="curve" smooth="yes"/>
      <point x="1138" y="2672"/>
      <point x="1135" y="2646"/>
    </contour>
    <component base="period" xOffset="241"/>
  </outline>
</glyph>
<glyph name="numbersign" format="2">
  <advance width="630"/>
  <unicode hex="0023"/>
  <outline>
    <contour>
      <point x="30" y="250" type="line"/>
      <point x="570" y="250" type="line"/>
      <point x="570" y="248" type="line"/>
      <point x="30" y="248" type="line"/>
    </contour>
    <contour>
      <point x="60" y="517" type="line"/>
      <point x="600" y="517" type="line"/>
      <point x="600" y="515" type="line"/>
      <point x="60" y="515" type="line"/>
    </contour>
    <contour>
      <point x="453" y="754" type="line"/>
      <point x="455" y="755" type="line"/>
      <point x="355" y="-5" type="line"/>
      <point x="353" y="-6" type="line"/>
    </contour>
    <contour>
      <point x="265" y="755" type="line"/>
      <point x="267" y="755" type="line"/>
      <point x="167" y="-5" type="line"/>
      <point x="165" y="-5" type="line"/>
    </contour>
  </outline>
</glyph>
<glyph name="dollar" format="2">
  <advance width="2436"/>
  <unicode hex="0024"/>
  <outline>
    <contour>
      <point x="1321" y="3400" type="line"/>
      <point x="1329" y="3400" type="line"/>
      <point x="1329" y="-328" type="line"/>
      <point x="1321" y="-328" type="line"/>
    </contour>
    <contour>
      <point x="999" y="3400" type="line"/>
      <point x="1007" y="3400" type="line"/>
      <point x="1007" y="-328" type="line"/>
      <point x="999" y="-328" type="line"/>
    </contour>
    <contour>
      <point x="2136" y="2550" type="curve"/>
      <point x="2077" y="2872"/>
      <point x="1685" y="3098"/>
      <point x="1278" y="3098" type="curve" smooth="yes"/>
      <point x="926" y="3098"/>
      <point x="655" y="2883"/>
      <point x="655" y="2580" type="curve" smooth="yes"/>
      <point x="655" y="1843"/>
      <point x="2274" y="2068"/>
      <point x="2274" y="901" type="curve" smooth="yes"/>
      <point x="2274" y="327"/>
      <point x="1847" y="-62"/>
      <point x="1208" y="-62" type="curve" smooth="yes"/>
      <point x="447" y="-62"/>
      <point x="112" y="328"/>
      <point x="112" y="635" type="curve" smooth="yes"/>
      <point x="112" y="864"/>
      <point x="250" y="1032"/>
      <point x="471" y="1032" type="curve" smooth="yes"/>
      <point x="634" y="1032"/>
      <point x="795" y="901"/>
      <point x="795" y="680" type="curve" smooth="yes"/>
      <point x="795" y="475"/>
      <point x="613" y="373"/>
      <point x="453" y="373" type="curve" smooth="yes"/>
      <point x="300" y="373"/>
      <point x="174" y="464"/>
      <point x="123" y="585" type="curve"/>
      <point x="153" y="310"/>
      <point x="484" y="-50"/>
      <point x="1188" y="-50" type="curve" smooth="yes"/>
      <point x="1622" y="-50"/>
      <point x="1843" y="209"/>
      <point x="1843" y="574" type="curve" smooth="yes"/>
      <point x="1843" y="1393"/>
      <point x="225" y="1086"/>
      <point x="225" y="2273" type="curve" smooth="yes"/>
      <point x="225" y="2785"/>
      <point x="741" y="3112"/>
      <point x="1237" y="3112" type="curve" smooth="yes"/>
      <point x="1721" y="3112"/>
      <point x="2151" y="2851"/>
      <point x="2151" y="2478" type="curve" smooth="yes"/>
      <point x="2151" y="2249"/>
      <point x="2023" y="2101"/>
      <point x="1802" y="2101" type="curve" smooth="yes"/>
      <point x="1639" y="2101"/>
      <point x="1478" y="2208"/>
      <point x="1478" y="2423" type="curve" smooth="yes"/>
      <point x="1478" y="2622"/>
      <point x="1645" y="2740"/>
      <point x="1805" y="2740" type="curve" smooth="yes"/>
      <point x="1952" y="2740"/>
      <point x="2077" y="2665"/>
    </contour>
  </outline>
</glyph>
<glyph name="ampersand" format="2">
  <advance width="6888"/>
  <unicode hex="0026"/>
  <outline>
    <contour>
      <point x="4672" y="3680" type="line"/>
      <point x="6592" y="3680" type="line"/>
      <point x="6592" y="3664" type="line"/>
      <point x="4672" y="3664" type="line"/>
    </contour>
    <contour>
      <point x="5744" y="3680" type="line"/>
      <point x="5584" y="1896"/>
      <point x="4416" y="-80"/>
      <point x="2272" y="-80" type="curve" smooth="yes"/>
      <point x="1008" y="-80"/>
      <point x="320" y="536"/>
      <point x="320" y="1440" type="curve" smooth="yes"/>
      <point x="320" y="2704"/>
      <point x="2000" y="3024"/>
      <point x="2688" y="3456" type="curve" smooth="yes"/>
      <point x="3296" y="3864"/>
      <point x="3728" y="3848"/>
      <point x="3728" y="5080" type="curve" smooth="yes"/>
      <point x="3728" y="5536"/>
      <point x="3616" y="6064"/>
      <point x="3168" y="6064" type="curve" smooth="yes"/>
      <point x="2736" y="6064"/>
      <point x="2568" y="5624"/>
      <point x="2568" y="5240" type="curve" smooth="yes"/>
      <point x="2568" y="4920"/>
      <point x="2808" y="4432"/>
      <point x="3152" y="3920" type="curve" smooth="yes"/>
      <point x="5696" y="16" type="line"/>
      <point x="6672" y="16" type="line"/>
      <point x="6672" y="0" type="line"/>
      <point x="4320" y="0" type="line"/>
      <point x="1672" y="3920" type="line" smooth="yes"/>
      <point x="1464" y="4224"/>
      <point x="1304" y="4624"/>
      <point x="1304" y="4904" type="curve" smooth="yes"/>
      <point x="1304" y="5624"/>
      <point x="2064" y="6080"/>
      <point x="3192" y="6080" type="curve" smooth="yes"/>
      <point x="4248" y="6080"/>
      <point x="4920" y="5688"/>
      <point x="4920" y="5088" type="curve" smooth="yes"/>
      <point x="4920" y="4104"/>
      <point x="3760" y="4152"/>
      <point x="2672" y="3424" type="curve" smooth="yes"/>
      <point x="2080" y="3056"/>
      <point x="1640" y="2960"/>
      <point x="1640" y="1840" type="curve" smooth="yes"/>
      <point x="1640" y="944"/>
      <point x="2200" y="128"/>
      <point x="2952" y="128" type="curve" smooth="yes"/>
      <point x="4344" y="128"/>
      <point x="5568" y="1856"/>
      <point x="5728" y="3680" type="curve"/>
    </contour>
  </outline>
</glyph>
<glyph name="parenleft" format="2">
  <advance width="1523"/>
  <unicode hex="0028"/>
  <outline>
    <contour>
      <point x="1450" y="-690" type="curve"/>
      <point x="1445" y="-696" type="line"/>
      <point x="777" y="-410"/>
      <point x="266" y="378"/>
      <point x="266" y="1332" type="curve" smooth="yes"/>
      <point x="266" y="2286"/>
      <point x="777" y="2990"/>
      <point x="1445" y="3276" type="curve"/>
      <point x="1450" y="3270" type="line"/>
      <point x="1044" y="3004"/>
      <point x="901" y="2118"/>
      <point x="901" y="1332" type="curve" smooth="yes"/>
      <point x="901" y="546"/>
      <point x="1044" y="-424"/>
    </contour>
  </outline>
</glyph>
<glyph name="plus" format="2">
  <advance width="4240"/>
  <unicode hex="002B"/>
  <outline>
    <contour>
      <point x="2112" y="880" type="line"/>
      <point x="2112" y="4160" type="line"/>
      <point x="2128" y="4160" type="line"/>
      <point x="2128" y="880" type="line"/>
    </contour>
    <contour>
      <point x="480" y="2536" type="line"/>
      <point x="3760" y="2536" type="line"/>
      <point x="3760" y="2520" type="line"/>
      <point x="480" y="2520" type="line"/>
    </contour>
  </outline>
</glyph>
<glyph name="comma" format="2">
  <advance width="2200"/>
  <unicode hex="002C"/>
  <outline>
    <contour>
      <point x="320" y="632" type="curve" smooth="yes"/>
      <point x="320" y="1016"/>
      <point x="672" y="1344"/>
      <point x="1096" y="1344" type="curve" smooth="yes"/>
      <point x="1528" y="1344"/>
      <point x="1896" y="976"/>
      <point x="1896" y="272" type="curve" smooth="yes"/>
      <point x="1896" y="-528"/>
      <point x="1264" y="-1216"/>
      <point x="304" y="-1216" type="curve"/>
      <point x="304" y="-1200" type="line"/>
      <point x="1272" y="-1200"/>
      <point x="2080" y="-440"/>
      <point x="1824" y="696" type="curve"/>
      <point x="1792" y="320"/>
      <point x="1512" y="-80"/>
      <point x="1056" y="-80" type="curve" smooth="yes"/>
      <point x="592" y="-80"/>
      <point x="320" y="248"/>
    </contour>
  </outline>
</glyph>
<glyph name="zero" format="2">
  <advance width="2702"/>
  <unicode hex="0030"/>
  <outline>
    <contour>
      <point x="1352" y="-40" type="curve" smooth="yes"/>
      <point x="643" y="-40"/>
      <point x="164" y="643"/>
      <point x="164" y="1536" type="curve" smooth="yes"/>
      <point x="164" y="2429"/>
      <point x="685" y="3112"/>
      <point x="1352" y="3112" type="curve" smooth="yes"/>
      <point x="2019" y="3112"/>
      <point x="2540" y="2429"/>
      <point x="2540" y="1536" type="curve" smooth="yes"/>
      <point x="2540" y="643"/>
      <point x="2061" y="-40"/>
    </contour>
    <contour>
      <point x="1352" y="3104" type="curve" smooth="yes"/>
      <point x="967" y="3104"/>
      <point x="880" y="2384"/>
      <point x="880" y="1536" type="curve" smooth="yes"/>
      <point x="880" y="688"/>
      <point x="926" y="-32"/>
      <point x="1352" y="-32" type="curve" smooth="yes"/>
      <point x="1778" y="-32"/>
      <point x="1822" y="688"/>
      <point x="1822" y="1536" type="curve" smooth="yes"/>
      <point x="1822" y="2384"/>
      <point x="1758" y="3104"/>
    </contour>
  </outline>
</glyph>
<glyph name="two" format="2">
  <advance width="600"/>
  <unicode hex="0032"/>
  <outline>
    <contour>
      <point x="565" y="0" type="line"/>
      <point x="40" y="0" type="line"/>
      <point x="40" y="100" type="line"/>
      <point x="254" y="272" type="line" smooth="yes"/>
      <point x="342" y="344"/>
      <point x="384" y="421"/>
      <point x="384" y="530" type="curve" smooth="yes"/>
      <point x="384" y="654"/>
      <point x="336" y="744"/>
      <point x="243" y="744" type="curve" smooth="yes"/>
      <point x="137" y="744"/>
      <point x="49" y="655"/>
      <point x="53" y="543" type="curve"/>
      <point x="65" y="581"/>
      <point x="97" y="612"/>
      <point x="144" y="612" type="curve" smooth="yes"/>
      <point x="198" y="612"/>
      <point x="238" y="576"/>
      <point x="238" y="526" type="curve" smooth="yes"/>
      <point x="238" y="471"/>
      <point x="190" y="434"/>
      <point x="140" y="434" type="curve" smooth="yes"/>
      <point x="90" y="434"/>
      <point x="50" y="472"/>
      <point x="50" y="549" type="curve" smooth="yes"/>
      <point x="50" y="666"/>
      <point x="143" y="760"/>
      <point x="300" y="760" type="curve" smooth="yes"/>
      <point x="456" y="760"/>
      <point x="544" y="675"/>
      <point x="544" y="570" type="curve" smooth="yes"/>
      <point x="544" y="455"/>
      <point x="424" y="400"/>
      <point x="350" y="344" type="curve" smooth="yes"/>
      <point x="116" y="150" type="line"/>
      <point x="563" y="150" type="line"/>
      <point x="563" y="225" type="line"/>
      <point x="565" y="225" type="line"/>
    </contour>
  </outline>
</glyph>
<glyph name="three" format="2">
  <advance width="2338"/>
  <unicode hex="0033"/>
  <outline>
    <contour>
      <point x="2175" y="840" type="curve" smooth="yes"/>
      <point x="2175" y="287"/>
      <point x="1667" y="-40"/>
      <point x="1048" y="-40" type="curve" smooth="yes"/>
      <point x="405" y="-40"/>
      <point x="102" y="325"/>
      <point x="102" y="660" type="curve" smooth="yes"/>
      <point x="102" y="889"/>
      <point x="256" y="1039"/>
      <point x="461" y="1039" type="curve" smooth="yes"/>
      <point x="645" y="1039"/>
      <point x="785" y="907"/>
      <point x="785" y="698" type="curve" smooth="yes"/>
      <point x="785" y="505"/>
      <point x="618" y="368"/>
      <point x="438" y="368" type="curve" smooth="yes"/>
      <point x="291" y="368"/>
      <point x="190" y="436"/>
      <point x="133" y="542" type="curve"/>
      <point x="174" y="278"/>
      <point x="459" y="-14"/>
      <point x="967" y="-14" type="curve" smooth="yes"/>
      <point x="1414" y="-14"/>
      <point x="1515" y="393"/>
      <point x="1515" y="840" type="curve" smooth="yes"/>
      <point x="1515" y="1205"/>
      <point x="1401" y="1654"/>
      <point x="811" y="1654" type="curve"/>
      <point x="811" y="1662" type="line"/>
      <point x="1840" y="1662"/>
      <point x="2175" y="1311"/>
    </contour>
    <contour>
      <point x="811" y="1654" type="curve"/>
      <point x="811" y="1662" type="line"/>
      <point x="1360" y="1662"/>
      <point x="1393" y="2137"/>
      <point x="1393" y="2420" type="curve" smooth="yes"/>
      <point x="1393" y="2744"/>
      <point x="1290" y="3088"/>
      <point x="1007" y="3088" type="curve" smooth="yes"/>
      <point x="698" y="3088"/>
      <point x="363" y="2888"/>
      <point x="281" y="2644" type="curve"/>
      <point x="355" y="2754"/>
      <point x="475" y="2802"/>
      <point x="581" y="2802" type="curve" smooth="yes"/>
      <point x="740" y="2802"/>
      <point x="897" y="2679"/>
      <point x="897" y="2484" type="curve" smooth="yes"/>
      <point x="897" y="2269"/>
      <point x="725" y="2142"/>
      <point x="561" y="2142" type="curve" smooth="yes"/>
      <point x="377" y="2142"/>
      <point x="226" y="2259"/>
      <point x="226" y="2478" type="curve" smooth="yes"/>
      <point x="226" y="2834"/>
      <point x="651" y="3108"/>
      <point x="1069" y="3108" type="curve" smooth="yes"/>
      <point x="1605" y="3108"/>
      <point x="2052" y="2850"/>
      <point x="2052" y="2400" type="curve" smooth="yes"/>
      <point x="2052" y="1990"/>
      <point x="1798" y="1654"/>
    </contour>
  </outline>
</glyph>
<glyph name="four" format="2">
  <advance width="5120"/>
  <unicode hex="0034"/>
  <outline>
    <contour>
      <point x="4760" y="16" type="line"/>
      <point x="4760" y="0" type="line"/>
      <point x="2160" y="0" type="line"/>
      <point x="2160" y="16" type="line"/>
      <point x="2920" y="16" type="line"/>
      <point x="2920" y="5512" type="line"/>
      <point x="312" y="1728" type="line"/>
      <point x="5040" y="1728" type="line"/>
      <point x="5040" y="1712" type="line"/>
      <point x="280" y="1712" type="line"/>
      <point x="3240" y="6000" type="line"/>
      <point x="4160" y="6000" type="line"/>
      <point x="4160" y="16" type="line"/>
    </contour>
  </outline>
</glyph>
<glyph name="five" format="2">
  <advance width="535"/>
  <unicode hex="0035"/>
  <outline>
    <contour>
      <point x="470" y="600" type="line"/>
      <point x="59" y="600" type="line"/>
      <point x="59" y="357" type="line"/>
      <point x="57" y="357" type="line"/>
      <point x="57" y="750" type="line"/>
      <point x="468" y="750" type="line"/>
      <point x="468" y="805" type="line"/>
      <point x="470" y="805" type="line"/>
    </contour>
    <contour>
      <point x="19" y="104" type="curve"/>
      <point x="35" y="45"/>
      <point x="112" y="-5"/>
      <point x="196" y="-5" type="curve" smooth="yes"/>
      <point x="305" y="-5"/>
      <point x="340" y="108"/>
      <point x="340" y="222" type="curve" smooth="yes"/>
      <point x="340" y="356"/>
      <point x="304" y="448"/>
      <point x="220" y="448" type="curve" smooth="yes"/>
      <point x="144" y="448"/>
      <point x="80" y="401"/>
      <point x="60" y="357" type="curve"/>
      <point x="58" y="357" type="line"/>
      <point x="79" y="404"/>
      <point x="146" y="455"/>
      <point x="252" y="455" type="curve" smooth="yes"/>
      <point x="403" y="455"/>
      <point x="505" y="372"/>
      <point x="505" y="222" type="curve" smooth="yes"/>
      <point x="505" y="87"/>
      <point x="382" y="-10"/>
      <point x="216" y="-10" type="curve" smooth="yes"/>
      <point x="109" y="-10"/>
      <point x="10" y="47"/>
      <point x="10" y="139" type="curve" smooth="yes"/>
      <point x="10" y="195"/>
      <point x="49" y="231"/>
      <point x="97" y="231" type="curve" smooth="yes"/>
      <point x="142" y="231"/>
      <point x="184" y="203"/>
      <point x="184" y="148" type="curve" smooth="yes"/>
      <point x="184" y="98"/>
      <point x="141" y="60"/>
      <point x="92" y="60" type="curve" smooth="yes"/>
      <point x="58" y="60"/>
      <point x="32" y="80"/>
    </contour>
  </outline>
</glyph>
<glyph name="six" format="2">
  <advance width="4880"/>
  <unicode hex="0036"/>
  <outline>
    <contour>
      <point x="3320" y="2000" type="curve" smooth="yes"/>
      <point x="3320" y="3272"/>
      <point x="3040" y="3840"/>
      <point x="2528" y="3840" type="curve" smooth="yes"/>
      <point x="1904" y="3840"/>
      <point x="1720" y="3280"/>
      <point x="1720" y="2240" type="curve"/>
      <point x="1704" y="2240" type="line"/>
      <point x="1704" y="3296"/>
      <point x="1848" y="3936"/>
      <point x="2768" y="3936" type="curve" smooth="yes"/>
      <point x="3656" y="3936"/>
      <point x="4640" y="3360"/>
      <point x="4640" y="2000" type="curve" smooth="yes"/>
      <point x="4640" y="800"/>
      <point x="3840" y="-80"/>
      <point x="2552" y="-80" type="curve" smooth="yes"/>
      <point x="1264" y="-80"/>
      <point x="400" y="800"/>
      <point x="400" y="2480" type="curve" smooth="yes"/>
      <point x="400" y="4424"/>
      <point x="1936" y="6080"/>
      <point x="4040" y="6080" type="curve"/>
      <point x="4040" y="6064" type="line"/>
      <point x="2608" y="6064"/>
      <point x="1720" y="4432"/>
      <point x="1720" y="2656" type="curve"/>
      <point x="1720" y="2240" type="line"/>
      <point x="1720" y="968"/>
      <point x="1944" y="-64"/>
      <point x="2576" y="-64" type="curve" smooth="yes"/>
      <point x="3208" y="-64"/>
      <point x="3320" y="888"/>
    </contour>
  </outline>
</glyph>
<glyph name="question" format="2">
  <advance width="2395"/>
  <unicode hex="003F"/>
  <outline>
    <contour>
      <point x="1028" y="1465" type="line"/>
      <point x="1405" y="1571"/>
      <point x="1532" y="1914"/>
      <point x="1532" y="2294" type="curve" smooth="yes"/>
      <point x="1532" y="2680"/>
      <point x="1486" y="3090"/>
      <point x="1080" y="3090" type="curve" smooth="yes"/>
      <point x="644" y="3090"/>
      <point x="298" y="2734"/>
      <point x="270" y="2482" type="curve"/>
      <point x="294" y="2554"/>
      <point x="415" y="2663"/>
      <point x="582" y="2663" type="curve" smooth="yes"/>
      <point x="762" y="2663"/>
      <point x="917" y="2550"/>
      <point x="917" y="2355" type="curve" smooth="yes"/>
      <point x="917" y="2140"/>
      <point x="766" y="2023"/>
      <point x="582" y="2023" type="curve" smooth="yes"/>
      <point x="378" y="2023"/>
      <point x="246" y="2160"/>
      <point x="246" y="2379" type="curve" smooth="yes"/>
      <point x="246" y="2735"/>
      <point x="632" y="3112"/>
      <point x="1172" y="3112" type="curve" smooth="yes"/>
      <point x="1791" y="3112"/>
      <point x="2191" y="2786"/>
      <point x="2191" y="2294" type="curve" smooth="yes"/>
      <point x="2191" y="1822"/>
      <point x="1716" y="1495"/>
      <point x="1036" y="1459" type="curve"/>
      <point x="1036" y="999" type="line"/>
      <point x="1028" y="999" type="line"/>
    </contour>
    <component base="period" xOffset="569"/>
  </outline>
</glyph>
<glyph name="at" format="2">
  <advance width="8080"/>
  <unicode hex="0040"/>
  <outline>
    <contour>
      <point x="4624" y="2864" type="curve" smooth="yes"/>
      <point x="4624" y="1648"/>
      <point x="4072" y="560"/>
      <point x="3152" y="560" type="curve" smooth="yes"/>
      <point x="2480" y="560"/>
      <point x="1952" y="1008"/>
      <point x="1952" y="1840" type="curve" smooth="yes"/>
      <point x="1952" y="3040"/>
      <point x="2824" y="4232"/>
      <point x="3776" y="4232" type="curve" smooth="yes"/>
      <point x="4504" y="4232"/>
      <point x="4624" y="3520"/>
    </contour>
    <contour>
      <point x="4608" y="2768" type="curve" smooth="yes"/>
      <point x="4608" y="3104"/>
      <point x="4592" y="3952"/>
      <point x="4160" y="3952" type="curve" smooth="yes"/>
      <point x="3728" y="3952"/>
      <point x="3240" y="2832"/>
      <point x="3240" y="1840" type="curve" smooth="yes"/>
      <point x="3240" y="1304"/>
      <point x="3360" y="848"/>
      <point x="3632" y="848" type="curve" smooth="yes"/>
      <point x="4112" y="848"/>
      <point x="4608" y="1784"/>
    </contour>
    <contour>
      <point x="4440" y="1680" type="curve" smooth="yes"/>
      <point x="5016" y="4160" type="line"/>
      <point x="6216" y="4160" type="line"/>
      <point x="5624" y="1616" type="line" smooth="yes"/>
      <point x="5568" y="1368"/>
      <point x="5328" y="664"/>
      <point x="5824" y="664" type="curve" smooth="yes"/>
      <point x="6784" y="664"/>
      <point x="7624" y="1824"/>
      <point x="7624" y="3208" type="curve" smooth="yes"/>
      <point x="7624" y="4656"/>
      <point x="6696" y="6304"/>
      <point x="4680" y="6304" type="curve" smooth="yes"/>
      <point x="2360" y="6304"/>
      <point x="456" y="4184"/>
      <point x="456" y="1688" type="curve" smooth="yes"/>
      <point x="456" y="-816"/>
      <point x="1904" y="-1696"/>
      <point x="3352" y="-1696" type="curve" smooth="yes"/>
      <point x="4648" y="-1696"/>
      <point x="5600" y="-1280"/>
      <point x="6264" y="-504" type="curve"/>
      <point x="6280" y="-512" type="line"/>
      <point x="5608" y="-1296"/>
      <point x="4656" y="-1712"/>
      <point x="3352" y="-1712" type="curve" smooth="yes"/>
      <point x="1888" y="-1712"/>
      <point x="440" y="-832"/>
      <point x="440" y="1688" type="curve" smooth="yes"/>
      <point x="440" y="4192"/>
      <point x="2336" y="6320"/>
      <point x="4680" y="6320" type="curve" smooth="yes"/>
      <point x="6704" y="6320"/>
      <point x="7640" y="4672"/>
      <point x="7640" y="3208" type="curve" smooth="yes"/>
      <point x="7640" y="1888"/>
      <point x="6896" y="544"/>
      <point x="5408" y="544" type="curve" smooth="yes"/>
      <point x="4456" y="544"/>
      <point x="4328" y="1184"/>
    </contour>
  </outline>
</glyph>
<glyph name="A" format="2">
  <advance width="782"/>
  <unicode hex="0041"/>
  <outline>
    <contour>
      <point x="18" y="2" type="line"/>
      <point x="238" y="2" type="line"/>
      <point x="238" y="0" type="line"/>
      <point x="18" y="0" type="line"/>
    </contour>
    <contour>
      <point x="428" y="2" type="line"/>
      <point x="768" y="2" type="line"/>
      <point x="768" y="0" type="line"/>
      <point x="428" y="0" type="line"/>
    </contour>
    <contour>
      <point x="200" y="246" type="line"/>
      <point x="518" y="246" type="line"/>
      <point x="518" y="244" type="line"/>
      <point x="200" y="244" type="line"/>
    </contour>
    <contour>
      <point x="326" y="596" type="line"/>
      <point x="116" y="0" type="line"/>
      <point x="114" y="0" type="line"/>
      <point x="382" y="765" type="line"/>
      <point x="432" y="765" type="line"/>
      <point x="698" y="0" type="line"/>
      <point x="518" y="0" type="line"/>
    </contour>
  </outline>
</glyph>
<glyph name="B" format="2">
  <advance width="697"/>
  <unicode hex="0042"/>
  <outline>
    <contour>
      <point x="358" y="384" type="curve" smooth="yes"/>
      <point x="238" y="384" type="line"/>
      <point x="238" y="386" type="line"/>
      <point x="338" y="386" type="line" smooth="yes"/>
      <point x="409" y="386"/>
      <point x="468" y="436"/>
      <point x="468" y="555" type="curve" smooth="yes"/>
      <point x="468" y="674"/>
      <point x="409" y="748"/>
      <point x="338" y="748" type="curve" smooth="yes"/>
      <point x="18" y="748" type="line"/>
      <point x="18" y="750" type="line"/>
      <point x="358" y="750" type="line" smooth="yes"/>
      <point x="524" y="750"/>
      <point x="628" y="695"/>
      <point x="628" y="565" type="curve" smooth="yes"/>
      <point x="628" y="440"/>
      <point x="534" y="384"/>
    </contour>
    <contour>
      <point x="108" y="750" type="line"/>
      <point x="262" y="750" type="line"/>
      <point x="262" y="0" type="line"/>
      <point x="108" y="0" type="line"/>
    </contour>
    <contour>
      <point x="378" y="0" type="curve" smooth="yes"/>
      <point x="18" y="0" type="line"/>
      <point x="18" y="2" type="line"/>
      <point x="348" y="2" type="line" smooth="yes"/>
      <point x="429" y="2"/>
      <point x="488" y="91"/>
      <point x="488" y="210" type="curve" smooth="yes"/>
      <point x="488" y="329"/>
      <point x="429" y="384"/>
      <point x="348" y="384" type="curve" smooth="yes"/>
      <point x="238" y="384" type="line"/>
      <point x="238" y="386" type="line"/>
      <point x="378" y="386" type="line" smooth="yes"/>
      <point x="534" y="386"/>
      <point x="658" y="340"/>
      <point x="658" y="200" type="curve" smooth="yes"/>
      <point x="658" y="55"/>
      <point x="554" y="0"/>
    </contour>
  </outline>
</glyph>
<glyph name="C" format="2">
  <advance width="2877"/>
  <unicode hex="0043"/>
  <outline>
    <contour>
      <point x="2665" y="3072" type="line"/>
      <point x="2673" y="3072" type="line"/>
      <point x="2673" y="2171" type="line"/>
      <point x="2593" y="2446"/>
      <point x="2469" y="2671"/>
      <point x="2282" y="2857" type="curve"/>
    </contour>
    <contour>
      <point x="2673" y="2171" type="curve"/>
      <point x="2661" y="2171" type="line"/>
      <point x="2524" y="2702"/>
      <point x="2154" y="3092"/>
      <point x="1690" y="3092" type="curve" smooth="yes"/>
      <point x="1080" y="3092"/>
      <point x="891" y="2282"/>
      <point x="891" y="1536" type="curve" smooth="yes"/>
      <point x="891" y="790"/>
      <point x="1080" y="-20"/>
      <point x="1690" y="-20" type="curve" smooth="yes"/>
      <point x="2249" y="-20"/>
      <point x="2588" y="402"/>
      <point x="2703" y="901" type="curve"/>
      <point x="2713" y="901" type="line"/>
      <point x="2590" y="356"/>
      <point x="2234" y="-40"/>
      <point x="1648" y="-40" type="curve" smooth="yes"/>
      <point x="734" y="-40"/>
      <point x="174" y="622"/>
      <point x="174" y="1536" type="curve" smooth="yes"/>
      <point x="174" y="2450"/>
      <point x="734" y="3112"/>
      <point x="1648" y="3112" type="curve" smooth="yes"/>
      <point x="2172" y="3112"/>
      <point x="2530" y="2716"/>
    </contour>
    <contour>
      <point x="2713" y="901" type="curve"/>
      <point x="2713" y="0" type="line"/>
      <point x="2705" y="0" type="line"/>
      <point x="2357" y="240" type="line"/>
      <point x="2543" y="426"/>
      <point x="2646" y="634"/>
    </contour>
  </outline>
</glyph>
<glyph name="D" format="2">
  <advance width="3102"/>
  <unicode hex="0044"/>
  <outline>
    <contour>
      <point x="440" y="3072" type="line"/>
      <point x="1075" y="3072" type="line"/>
      <point x="1075" y="0" type="line"/>
      <point x="440" y="0" type="line"/>
    </contour>
    <contour>
      <point x="1382" y="0" type="curve" smooth="yes"/>
      <point x="72" y="0" type="line"/>
      <point x="72" y="8" type="line"/>
      <point x="1382" y="8" type="line" smooth="yes"/>
      <point x="2013" y="8"/>
      <point x="2222" y="729"/>
      <point x="2222" y="1536" type="curve" smooth="yes"/>
      <point x="2222" y="2343"/>
      <point x="1971" y="3064"/>
      <point x="1382" y="3064" type="curve" smooth="yes"/>
      <point x="72" y="3064" type="line"/>
      <point x="72" y="3072" type="line"/>
      <point x="1382" y="3072" type="line" smooth="yes"/>
      <point x="2357" y="3072"/>
      <point x="2939" y="2449"/>
      <point x="2939" y="1536" type="curve" smooth="yes"/>
      <point x="2939" y="623"/>
      <point x="2316" y="0"/>
    </contour>
  </outline>
</glyph>
<glyph name="E" format="2">
  <advance width="2565"/>
  <unicode hex="0045"/>
  <outline>
    <contour>
      <point x="2436.5" y="922" type="curve"/>
      <point x="2444.5" y="922" type="line"/>
      <point x="2444.5" y="0" type="line"/>
      <point x="68.5" y="0" type="line"/>
      <point x="68.5" y="8" type="line"/>
      <point x="1502.5" y="8" type="line" smooth="yes"/>
      <point x="2064.5" y="8"/>
      <point x="2375.5" y="402"/>
    </contour>
    <contour>
      <point x="436.5" y="3072" type="line"/>
      <point x="1071.5" y="3072" type="line"/>
      <point x="1071.5" y="0" type="line"/>
      <point x="436.5" y="0" type="line"/>
    </contour>
    <contour>
      <point x="68.5" y="3072" type="line"/>
      <point x="2402.5" y="3072" type="line"/>
      <point x="2402.5" y="2232" type="line"/>
      <point x="2394.5" y="2232" type="line"/>
      <point x="2333.5" y="2670"/>
      <point x="2022.5" y="3064"/>
      <point x="1542.5" y="3064" type="curve" smooth="yes"/>
      <point x="68.5" y="3064" type="line"/>
    </contour>
    <contour>
      <point x="1759.5" y="1077" type="line"/>
      <point x="1698.5" y="1351"/>
      <point x="1449.5" y="1586"/>
      <point x="1215.5" y="1586" type="curve" smooth="yes"/>
      <point x="928.5" y="1586" type="line"/>
      <point x="928.5" y="1594" type="line"/>
      <point x="1215.5" y="1594" type="line" smooth="yes"/>
      <point x="1449.5" y="1594"/>
      <point x="1698.5" y="1807"/>
      <point x="1759.5" y="2081" type="curve"/>
      <point x="1768.5" y="2081" type="line"/>
      <point x="1768.5" y="1077" type="line"/>
    </contour>
  </outline>
</glyph>
<glyph name="F" format="2">
  <advance width="2467"/>
  <unicode hex="0046"/>
  <outline>
    <contour>
      <point x="72" y="3072" type="line"/>
      <point x="2345" y="3072" type="line"/>
      <point x="2345" y="2232" type="line"/>
      <point x="2337" y="2232" type="line"/>
      <point x="2276" y="2670"/>
      <point x="2006" y="3064"/>
      <point x="1547" y="3064" type="curve" smooth="yes"/>
      <point x="72" y="3064" type="line"/>
    </contour>
    <contour>
      <point x="72" y="8" type="line"/>
      <point x="1485" y="8" type="line"/>
      <point x="1485" y="0" type="line"/>
      <point x="72" y="0" type="line"/>
    </contour>
    <contour>
      <point x="440" y="3072" type="line"/>
      <point x="1075" y="3072" type="line"/>
      <point x="1075" y="0" type="line"/>
      <point x="440" y="0" type="line"/>
    </contour>
    <contour>
      <point x="1763" y="1016" type="line"/>
      <point x="1702" y="1290"/>
      <point x="1493" y="1524"/>
      <point x="1178" y="1524" type="curve" smooth="yes"/>
      <point x="911" y="1524" type="line"/>
      <point x="911" y="1532" type="line"/>
      <point x="1178" y="1532" type="line" smooth="yes"/>
      <point x="1493" y="1532"/>
      <point x="1702" y="1746"/>
      <point x="1763" y="2020" type="curve"/>
      <point x="1771" y="2020" type="line"/>
      <point x="1771" y="1016" type="line"/>
    </contour>
  </outline>
</glyph>
<glyph name="G" format="2">
  <advance width="3095"/>
  <unicode hex="0047"/>
  <outline>
    <contour>
      <point x="2748" y="2171" type="line"/>
      <point x="2647" y="2525"/>
      <point x="2482" y="2732"/>
      <point x="2312" y="2873" type="curve"/>
      <point x="2740" y="3072" type="line"/>
      <point x="2748" y="3072" type="line"/>
    </contour>
    <contour>
      <point x="1744" y="1172" type="line"/>
      <point x="3055" y="1172" type="line"/>
      <point x="3055" y="1164" type="line"/>
      <point x="1744" y="1164" type="line"/>
    </contour>
    <contour>
      <point x="2174" y="1168" type="line"/>
      <point x="2850" y="1168" type="line"/>
      <point x="2850" y="635" type="line"/>
      <point x="2584" y="356"/>
      <point x="2289" y="-40"/>
      <point x="1621" y="-40" type="curve" smooth="yes"/>
      <point x="708" y="-40"/>
      <point x="167" y="581"/>
      <point x="167" y="1536" type="curve" smooth="yes"/>
      <point x="167" y="2491"/>
      <point x="850" y="3112"/>
      <point x="1682" y="3112" type="curve" smooth="yes"/>
      <point x="2206" y="3112"/>
      <point x="2644" y="2675"/>
      <point x="2748" y="2171" type="curve"/>
      <point x="2740" y="2171" type="line"/>
      <point x="2658" y="2613"/>
      <point x="2230" y="3090"/>
      <point x="1734" y="3090" type="curve" smooth="yes"/>
      <point x="1124" y="3090"/>
      <point x="884" y="2282"/>
      <point x="884" y="1536" type="curve" smooth="yes"/>
      <point x="884" y="790"/>
      <point x="1031" y="-32"/>
      <point x="1621" y="-32" type="curve" smooth="yes"/>
      <point x="1965" y="-32"/>
      <point x="2113" y="340"/>
      <point x="2174" y="512" type="curve"/>
    </contour>
  </outline>
</glyph>
<glyph name="H" format="2">
  <advance width="3245"/>
  <unicode hex="0048"/>
  <outline>
    <contour>
      <point x="993" y="1520" type="line"/>
      <point x="2263" y="1520" type="line"/>
      <point x="2263" y="1512" type="line"/>
      <point x="993" y="1512" type="line"/>
    </contour>
    <contour>
      <point x="1813" y="8" type="line"/>
      <point x="3185" y="8" type="line"/>
      <point x="3185" y="0" type="line"/>
      <point x="1813" y="0" type="line"/>
    </contour>
    <contour>
      <point x="72" y="8" type="line"/>
      <point x="1444" y="8" type="line"/>
      <point x="1444" y="0" type="line"/>
      <point x="72" y="0" type="line"/>
    </contour>
    <contour>
      <point x="1813" y="3072" type="line"/>
      <point x="3185" y="3072" type="line"/>
      <point x="3185" y="3064" type="line"/>
      <point x="1813" y="3064" type="line"/>
    </contour>
    <contour>
      <point x="72" y="3072" type="line"/>
      <point x="1444" y="3072" type="line"/>
      <point x="1444" y="3064" type="line"/>
      <point x="72" y="3064" type="line"/>
    </contour>
    <contour>
      <point x="2181" y="3072" type="line"/>
      <point x="2816" y="3072" type="line"/>
      <point x="2816" y="0" type="line"/>
      <point x="2181" y="0" type="line"/>
    </contour>
    <contour>
      <point x="440" y="3072" type="line"/>
      <point x="1075" y="3072" type="line"/>
      <point x="1075" y="0" type="line"/>
      <point x="440" y="0" type="line"/>
    </contour>
  </outline>
</glyph>
<glyph name="I" format="2">
  <advance width="3336"/>
  <unicode hex="0049"/>
  <outline>
    <contour>
      <point x="144" y="16" type="line"/>
      <point x="3216" y="16" type="line"/>
      <point x="3216" y="0" type="line"/>
      <point x="144" y="0" type="line"/>
    </contour>
    <contour>
      <point x="144" y="6000" type="line"/>
      <point x="3216" y="6000" type="line"/>
      <point x="3216" y="5984" type="line"/>
      <point x="144" y="5984" type="line"/>
    </contour>
    <contour>
      <point x="1024" y="6000" type="line"/>
      <point x="2256" y="6000" type="line"/>
      <point x="2256" y="0" type="line"/>
      <point x="1024" y="0" type="line"/>
    </contour>
  </outline>
</glyph>
<glyph name="J" format="2">
  <advance width="533"/>
  <unicode hex="004A"/>
  <outline>
    <contour>
      <point x="134" y="750" type="line"/>
      <point x="518" y="750" type="line"/>
      <point x="518" y="748" type="line"/>
      <point x="134" y="748" type="line"/>
    </contour>
    <contour>
      <point x="264" y="750" type="line"/>
      <point x="418" y="750" type="line"/>
      <point x="418" y="170" type="line"/>
      <point x="378" y="75"/>
      <point x="324" y="-30"/>
      <point x="178" y="-30" type="curve" smooth="yes"/>
      <point x="76" y="-30"/>
      <point x="12" y="30"/>
      <point x="12" y="105" type="curve" smooth="yes"/>
      <point x="12" y="162"/>
      <point x="54" y="200"/>
      <point x="104" y="200" type="curve" smooth="yes"/>
      <point x="149" y="200"/>
      <point x="190" y="167"/>
      <point x="190" y="111" type="curve" smooth="yes"/>
      <point x="190" y="61"/>
      <point x="152" y="22"/>
      <point x="104" y="22" type="curve" smooth="yes"/>
      <point x="68" y="22"/>
      <point x="39" y="35"/>
      <point x="30" y="46" type="curve"/>
      <point x="50" y="9"/>
      <point x="102" y="-28"/>
      <point x="176" y="-28" type="curve" smooth="yes"/>
      <point x="252" y="-28"/>
      <point x="264" y="50"/>
      <point x="264" y="190" type="curve" smooth="yes"/>
    </contour>
  </outline>
</glyph>
<glyph name="L" format="2">
  <advance width="615"/>
  <unicode hex="004C"/>
  <outline>
    <contour>
      <point x="108" y="750" type="line"/>
      <point x="262" y="750" type="line"/>
      <point x="262" y="0" type="line"/>
      <point x="108" y="0" type="line"/>
    </contour>
    <contour>
      <point x="18" y="750" type="line"/>
      <point x="84" y="750"/>
      <point x="286" y="750"/>
      <point x="352" y="750" type="curve"/>
      <point x="352" y="748" type="line"/>
      <point x="18" y="748" type="line"/>
    </contour>
    <contour>
      <point x="595" y="0" type="line"/>
      <point x="18" y="0" type="line"/>
      <point x="18" y="2" type="line"/>
      <point x="365" y="2" type="line" smooth="yes"/>
      <point x="512" y="2"/>
      <point x="578" y="98"/>
      <point x="593" y="225" type="curve"/>
      <point x="595" y="225" type="line"/>
    </contour>
  </outline>
</glyph>
<glyph name="M" format="2">
  <advance width="3614"/>
  <unicode hex="004D"/>
  <outline>
    <contour>
      <point x="3553" y="3072" type="line"/>
      <point x="3553" y="3064" type="line"/>
      <point x="3267" y="3064" type="line"/>
      <point x="3267" y="0" type="line"/>
      <point x="2632" y="0" type="line"/>
      <point x="2632" y="3072" type="line"/>
    </contour>
    <contour>
      <point x="92" y="8" type="line"/>
      <point x="714" y="8" type="line"/>
      <point x="714" y="0" type="line"/>
      <point x="92" y="0" type="line"/>
    </contour>
    <contour>
      <point x="2304" y="8" type="line"/>
      <point x="3553" y="8" type="line"/>
      <point x="3553" y="0" type="line"/>
      <point x="2304" y="0" type="line"/>
    </contour>
    <contour>
      <point x="1851" y="872" type="line"/>
      <point x="2628" y="3072" type="line"/>
      <point x="2636" y="3072" type="line"/>
      <point x="1542" y="-40" type="line"/>
      <point x="1530" y="-40" type="line"/>
      <point x="391" y="3072" type="line"/>
      <point x="1030" y="3072" type="line"/>
    </contour>
    <contour>
      <point x="387" y="3064" type="line"/>
      <point x="72" y="3064" type="line"/>
      <point x="72" y="3072" type="line"/>
      <point x="396" y="3072" type="line"/>
      <point x="396" y="0" type="line"/>
      <point x="387" y="0" type="line"/>
    </contour>
  </outline>
</glyph>
<glyph name="N" format="2">
  <advance width="5976"/>
  <unicode hex="004E"/>
  <outline>
    <contour>
      <point x="5008" y="6000" type="line"/>
      <point x="5024" y="6000" type="line"/>
      <point x="5024" y="-80" type="line"/>
      <point x="5008" y="-80" type="line"/>
      <point x="944" y="6000" type="line"/>
      <point x="2416" y="6000" type="line"/>
      <point x="5008" y="2032" type="line"/>
    </contour>
    <contour>
      <point x="4080" y="6000" type="line"/>
      <point x="5856" y="6000" type="line"/>
      <point x="5856" y="5984" type="line"/>
      <point x="4080" y="5984" type="line"/>
    </contour>
    <contour>
      <point x="144" y="16" type="line"/>
      <point x="1872" y="16" type="line"/>
      <point x="1872" y="0" type="line"/>
      <point x="144" y="0" type="line"/>
    </contour>
    <contour>
      <point x="928" y="5984" type="line"/>
      <point x="144" y="5984" type="line"/>
      <point x="144" y="6000" type="line"/>
      <point x="944" y="6000" type="line"/>
      <point x="944" y="0" type="line"/>
      <point x="928" y="0" type="line"/>
    </contour>
  </outline>
</glyph>
<glyph name="P" format="2">
  <advance width="2754"/>
  <unicode hex="0050"/>
  <outline>
    <contour>
      <point x="440" y="3072" type="line"/>
      <point x="1075" y="3072" type="line"/>
      <point x="1075" y="0" type="line"/>
      <point x="440" y="0" type="line"/>
    </contour>
    <contour>
      <point x="72" y="8" type="line"/>
      <point x="1444" y="8" type="line"/>
      <point x="1444" y="0" type="line"/>
      <point x="72" y="0" type="line"/>
    </contour>
    <contour>
      <point x="1485" y="1388" type="curve" smooth="yes"/>
      <point x="891" y="1388" type="line"/>
      <point x="891" y="1396" type="line"/>
      <point x="1403" y="1396" type="line" smooth="yes"/>
      <point x="1756" y="1396"/>
      <point x="1915" y="1848"/>
      <point x="1915" y="2212" type="curve" smooth="yes"/>
      <point x="1915" y="2576"/>
      <point x="1756" y="3064"/>
      <point x="1403" y="3064" type="curve" smooth="yes"/>
      <point x="72" y="3064" type="line"/>
      <point x="72" y="3072" type="line"/>
      <point x="1485" y="3072" type="line" smooth="yes"/>
      <point x="2268" y="3072"/>
      <point x="2612" y="2744"/>
      <point x="2612" y="2212" type="curve" smooth="yes"/>
      <point x="2612" y="1680"/>
      <point x="2268" y="1388"/>
    </contour>
  </outline>
</glyph>
<glyph name="Q" format="2">
  <advance width="3122"/>
  <unicode hex="0051"/>
  <outline>
    <contour>
      <point x="1567" y="-40" type="curve" smooth="yes"/>
      <point x="694" y="-40"/>
      <point x="174" y="643"/>
      <point x="174" y="1536" type="curve" smooth="yes"/>
      <point x="174" y="2429"/>
      <point x="736" y="3112"/>
      <point x="1567" y="3112" type="curve" smooth="yes"/>
      <point x="2398" y="3112"/>
      <point x="2959" y="2429"/>
      <point x="2959" y="1536" type="curve" smooth="yes"/>
      <point x="2959" y="643"/>
      <point x="2440" y="-40"/>
    </contour>
    <contour>
      <point x="1567" y="3104" type="curve" smooth="yes"/>
      <point x="1038" y="3104"/>
      <point x="891" y="2384"/>
      <point x="891" y="1536" type="curve" smooth="yes"/>
      <point x="891" y="688"/>
      <point x="998" y="-32"/>
      <point x="1567" y="-32" type="curve" smooth="yes"/>
      <point x="2136" y="-32"/>
      <point x="2242" y="688"/>
      <point x="2242" y="1536" type="curve" smooth="yes"/>
      <point x="2242" y="2384"/>
      <point x="2096" y="3104"/>
    </contour>
    <contour>
      <point x="2386" y="-1016" type="curve"/>
      <point x="2386" y="-1024" type="line"/>
      <point x="1370" y="-1024"/>
      <point x="1198" y="-795"/>
      <point x="1198" y="16" type="curve"/>
      <point x="1445" y="-57"/>
      <point x="1679" y="-58"/>
      <point x="1915" y="16" type="curve"/>
      <point x="1915" y="-730"/>
      <point x="1940" y="-1016"/>
    </contour>
  </outline>
</glyph>
<glyph name="R" format="2">
  <advance width="3041"/>
  <unicode hex="0052"/>
  <outline>
    <contour>
      <point x="1501.5" y="1572" type="curve" smooth="yes"/>
      <point x="805.5" y="1572" type="line"/>
      <point x="805.5" y="1582" type="line"/>
      <point x="1399.5" y="1582" type="line" smooth="yes"/>
      <point x="1793.5" y="1582"/>
      <point x="1993.5" y="1827"/>
      <point x="1993.5" y="2314" type="curve" smooth="yes"/>
      <point x="1993.5" y="2801"/>
      <point x="1793.5" y="3064"/>
      <point x="1399.5" y="3064" type="curve" smooth="yes"/>
      <point x="68.5" y="3064" type="line"/>
      <point x="68.5" y="3072" type="line"/>
      <point x="1501.5" y="3072" type="line" smooth="yes"/>
      <point x="2181.5" y="3072"/>
      <point x="2648.5" y="2846"/>
      <point x="2648.5" y="2314" type="curve" smooth="yes"/>
      <point x="2648.5" y="1782"/>
      <point x="2222.5" y="1572"/>
    </contour>
    <contour>
      <point x="68.5" y="8" type="line"/>
      <point x="1522.5" y="8" type="line"/>
      <point x="1522.5" y="0" type="line"/>
      <point x="68.5" y="0" type="line"/>
    </contour>
    <contour>
      <point x="477.5" y="3072" type="line"/>
      <point x="1112.5" y="3072" type="line"/>
      <point x="1112.5" y="0" type="line"/>
      <point x="477.5" y="0" type="line"/>
    </contour>
    <contour>
      <point x="2996.5" y="54" type="line"/>
      <point x="2930.5" y="18"/>
      <point x="2751.5" y="-30"/>
      <point x="2505.5" y="-30" type="curve" smooth="yes"/>
      <point x="1387.5" y="-30"/>
      <point x="2407.5" y="1572"/>
      <point x="1399.5" y="1572" type="curve" smooth="yes"/>
      <point x="805.5" y="1572" type="line"/>
      <point x="805.5" y="1582" type="line"/>
      <point x="1727.5" y="1582" type="line" smooth="yes"/>
      <point x="3070.5" y="1582"/>
      <point x="2257.5" y="4"/>
      <point x="2761.5" y="4" type="curve" smooth="yes"/>
      <point x="2847.5" y="4"/>
      <point x="2934.5" y="30"/>
      <point x="2992.5" y="58" type="curve"/>
    </contour>
  </outline>
</glyph>
<glyph name="S" format="2">
  <advance width="2446"/>
  <unicode hex="0053"/>
  <outline>
    <contour>
      <point x="2120" y="2192" type="curve"/>
      <point x="2109" y="2192" type="line"/>
      <point x="1945" y="2764"/>
      <point x="1626" y="3100"/>
      <point x="1145" y="3100" type="curve" smooth="yes"/>
      <point x="813" y="3100"/>
      <point x="645" y="2884"/>
      <point x="645" y="2601" type="curve" smooth="yes"/>
      <point x="645" y="1905"/>
      <point x="2284" y="2068"/>
      <point x="2284" y="881" type="curve" smooth="yes"/>
      <point x="2284" y="308"/>
      <point x="1838" y="-62"/>
      <point x="1260" y="-62" type="curve" smooth="yes"/>
      <point x="622" y="-62"/>
      <point x="334" y="429"/>
      <point x="174" y="921" type="curve"/>
      <point x="184" y="921" type="line"/>
      <point x="342" y="431"/>
      <point x="634" y="-52"/>
      <point x="1244" y="-52" type="curve" smooth="yes"/>
      <point x="1637" y="-52"/>
      <point x="1874" y="209"/>
      <point x="1874" y="573" type="curve" smooth="yes"/>
      <point x="1874" y="1351"/>
      <point x="215" y="1107"/>
      <point x="215" y="2294" type="curve" smooth="yes"/>
      <point x="215" y="2806"/>
      <point x="650" y="3112"/>
      <point x="1125" y="3112" type="curve" smooth="yes"/>
      <point x="1629" y="3112"/>
      <point x="1956" y="2770"/>
    </contour>
    <contour>
      <point x="2112" y="3112" type="line"/>
      <point x="2120" y="3112" type="line"/>
      <point x="2120" y="2192" type="line"/>
      <point x="2020" y="2476"/>
      <point x="1922" y="2687"/>
      <point x="1734" y="2873" type="curve"/>
    </contour>
    <contour>
      <point x="182" y="-40" type="line"/>
      <point x="174" y="-40" type="line"/>
      <point x="174" y="921" type="line"/>
      <point x="304" y="584"/>
      <point x="409" y="389"/>
      <point x="571" y="221" type="curve"/>
    </contour>
  </outline>
</glyph>
<glyph name="T" format="2">
  <advance width="677"/>
  <unicode hex="0054"/>
  <outline>
    <contour>
      <point x="152" y="2" type="line"/>
      <point x="528" y="2" type="line"/>
      <point x="528" y="0" type="line"/>
      <point x="152" y="0" type="line"/>
    </contour>
    <contour>
      <point x="262" y="750" type="line"/>
      <point x="418" y="750" type="line"/>
      <point x="418" y="0" type="line"/>
      <point x="262" y="0" type="line"/>
    </contour>
    <contour>
      <point x="482" y="748" type="curve" smooth="yes"/>
      <point x="198" y="748" type="line" smooth="yes"/>
      <point x="91" y="748"/>
      <point x="35" y="637"/>
      <point x="20" y="510" type="curve"/>
      <point x="18" y="510" type="line"/>
      <point x="18" y="750" type="line"/>
      <point x="662" y="750" type="line"/>
      <point x="662" y="510" type="line"/>
      <point x="660" y="510" type="line"/>
      <point x="645" y="637"/>
      <point x="589" y="748"/>
    </contour>
  </outline>
</glyph>
<glyph name="U" format="2">
  <advance width="2959"/>
  <unicode hex="0055"/>
  <outline>
    <contour>
      <point x="2099" y="3072" type="line"/>
      <point x="2898" y="3072" type="line"/>
      <point x="2898" y="3064" type="line"/>
      <point x="2099" y="3064" type="line"/>
    </contour>
    <contour>
      <point x="72" y="3072" type="line"/>
      <point x="1485" y="3072" type="line"/>
      <point x="1485" y="3064" type="line"/>
      <point x="72" y="3064" type="line"/>
    </contour>
    <contour>
      <point x="2484" y="3072" type="line"/>
      <point x="2493" y="3072" type="line"/>
      <point x="2493" y="942" type="line" smooth="yes"/>
      <point x="2493" y="266"/>
      <point x="2214" y="-62"/>
      <point x="1546" y="-62" type="curve" smooth="yes"/>
      <point x="776" y="-62"/>
      <point x="440" y="234"/>
      <point x="440" y="942" type="curve" smooth="yes"/>
      <point x="440" y="3072" type="line"/>
      <point x="1075" y="3072" type="line"/>
      <point x="1075" y="984" type="line" smooth="yes"/>
      <point x="1075" y="444"/>
      <point x="1172" y="-26"/>
      <point x="1700" y="-26" type="curve" smooth="yes"/>
      <point x="2187" y="-26"/>
      <point x="2484" y="272"/>
      <point x="2484" y="942" type="curve" smooth="yes"/>
    </contour>
  </outline>
</glyph>
<glyph name="V" format="2">
  <advance width="3163"/>
  <unicode hex="0056"/>
  <outline>
    <contour>
      <point x="3123" y="3064" type="line"/>
      <point x="2222" y="3064" type="line"/>
      <point x="2222" y="3072" type="line"/>
      <point x="3123" y="3072" type="line"/>
    </contour>
    <contour>
      <point x="1526" y="3064" type="line"/>
      <point x="51" y="3064" type="line"/>
      <point x="51" y="3072" type="line"/>
      <point x="1526" y="3072" type="line"/>
    </contour>
    <contour>
      <point x="1866" y="635" type="line"/>
      <point x="2740" y="3072" type="line"/>
      <point x="2750" y="3072" type="line"/>
      <point x="1628" y="-62" type="line"/>
      <point x="1424" y="-62" type="line"/>
      <point x="338" y="3072" type="line"/>
      <point x="1075" y="3072" type="line"/>
    </contour>
  </outline>
</glyph>
<glyph name="W" format="2">
  <advance width="1102"/>
  <unicode hex="0057"/>
  <outline>
    <contour>
      <point x="595" y="475" type="line"/>
      <point x="409" y="-10" type="line"/>
      <point x="368" y="-10" type="line"/>
      <point x="92" y="750" type="line"/>
      <point x="268" y="750" type="line"/>
      <point x="476" y="171" type="line"/>
      <point x="600" y="494" type="line"/>
    </contour>
    <contour>
      <point x="654" y="466" type="line"/>
      <point x="655" y="476" type="line"/>
      <point x="757" y="750" type="line"/>
      <point x="760" y="750" type="line"/>
    </contour>
    <contour>
      <point x="1092" y="748" type="line"/>
      <point x="892" y="748" type="line"/>
      <point x="892" y="750" type="line"/>
      <point x="1092" y="750" type="line"/>
    </contour>
    <contour>
      <point x="573" y="750" type="line"/>
      <point x="780" y="171" type="line"/>
      <point x="998" y="750" type="line"/>
      <point x="1000" y="750" type="line"/>
      <point x="714" y="-10" type="line"/>
      <point x="688" y="-10" type="line"/>
      <point x="412" y="750" type="line"/>
    </contour>
    <contour>
      <point x="848" y="748" type="line"/>
      <point x="12" y="748" type="line"/>
      <point x="12" y="750" type="line"/>
      <point x="848" y="750" type="line"/>
    </contour>
  </outline>
</glyph>
<glyph name="X" format="2">
  <advance width="792"/>
  <unicode hex="0058"/>
  <outline>
    <contour>
      <point x="398" y="377" type="line"/>
      <point x="395" y="377" type="line"/>
      <point x="630" y="748" type="line"/>
      <point x="632" y="748" type="line"/>
    </contour>
    <contour>
      <point x="126" y="0" type="line"/>
      <point x="124" y="0" type="line"/>
      <point x="399" y="417" type="line"/>
      <point x="402" y="417" type="line"/>
    </contour>
    <contour>
      <point x="442" y="2" type="line"/>
      <point x="782" y="2" type="line"/>
      <point x="782" y="0" type="line"/>
      <point x="442" y="0" type="line"/>
    </contour>
    <contour>
      <point x="12" y="2" type="line"/>
      <point x="252" y="2" type="line"/>
      <point x="252" y="0" type="line"/>
      <point x="12" y="0" type="line"/>
    </contour>
    <contour>
      <point x="388" y="748" type="line"/>
      <point x="48" y="748" type="line"/>
      <point x="48" y="750" type="line"/>
      <point x="388" y="750" type="line"/>
    </contour>
    <contour>
      <point x="728" y="748" type="line"/>
      <point x="508" y="748" type="line"/>
      <point x="508" y="750" type="line"/>
      <point x="728" y="750" type="line"/>
    </contour>
    <contour>
      <point x="718" y="0" type="line"/>
      <point x="538" y="0" type="line"/>
      <point x="108" y="750" type="line"/>
      <point x="284" y="750" type="line"/>
    </contour>
  </outline>
</glyph>
<glyph name="Z" format="2">
  <advance width="2506"/>
  <unicode hex="005A"/>
  <outline>
    <contour>
      <point x="132" y="3072" type="line"/>
      <point x="2344" y="3072" type="line"/>
      <point x="2344" y="3064" type="line"/>
      <point x="767" y="8" type="line"/>
      <point x="1525" y="8" type="line" smooth="yes"/>
      <point x="2087" y="8"/>
      <point x="2295" y="320"/>
      <point x="2377" y="840" type="curve"/>
      <point x="2385" y="840" type="line"/>
      <point x="2385" y="0" type="line"/>
      <point x="50" y="0" type="line"/>
      <point x="50" y="8" type="line"/>
      <point x="1627" y="3064" type="line"/>
      <point x="992" y="3064" type="line" smooth="yes"/>
      <point x="430" y="3064"/>
      <point x="223" y="2752"/>
      <point x="141" y="2314" type="curve"/>
      <point x="132" y="2314" type="line"/>
    </contour>
  </outline>
</glyph>
<glyph name="bracketleft" format="2">
  <advance width="1453"/>
  <unicode hex="005B"/>
  <outline>
    <contour>
      <point x="1331" y="-614" type="line"/>
      <point x="226" y="-614" type="line"/>
      <point x="226" y="-606" type="line"/>
      <point x="1331" y="-606" type="line"/>
    </contour>
    <contour>
      <point x="1331" y="3186" type="line"/>
      <point x="226" y="3186" type="line"/>
      <point x="226" y="3194" type="line"/>
      <point x="1331" y="3194" type="line"/>
    </contour>
    <contour>
      <point x="840" y="3194" type="line"/>
      <point x="840" y="-614" type="line"/>
      <point x="226" y="-614" type="line"/>
      <point x="226" y="3194" type="line"/>
    </contour>
  </outline>
</glyph>
<glyph name="grave" format="2">
  <advance width="3280"/>
  <unicode hex="0060"/>
  <outline>
    <contour>
      <point x="960" y="5600" type="line" smooth="yes"/>
      <point x="688" y="5560"/>
      <point x="440" y="5768"/>
      <point x="440" y="6040" type="curve" smooth="yes"/>
      <point x="440" y="6312"/>
      <point x="736" y="6584"/>
      <point x="1040" y="6464" type="curve" smooth="yes"/>
      <point x="2816" y="5808" type="line"/>
      <point x="2800" y="5792" type="line"/>
    </contour>
  </outline>
</glyph>
<glyph name="a" format="2">
  <advance width="2359"/>
  <unicode hex="0061"/>
  <outline>
    <contour>
      <point x="2359" y="258" type="line"/>
      <point x="2265" y="54"/>
      <point x="2053" y="-40"/>
      <point x="1815" y="-40" type="curve" smooth="yes"/>
      <point x="1561" y="-40"/>
      <point x="1335" y="38"/>
      <point x="1335" y="320" type="curve" smooth="yes"/>
      <point x="1335" y="1250" type="line" smooth="yes"/>
      <point x="1335" y="1565"/>
      <point x="1255" y="1898"/>
      <point x="948" y="1898" type="curve" smooth="yes"/>
      <point x="711" y="1898"/>
      <point x="502" y="1800"/>
      <point x="422" y="1720" type="curve"/>
      <point x="719" y="1847"/>
      <point x="946" y="1680"/>
      <point x="946" y="1487" type="curve" smooth="yes"/>
      <point x="946" y="1303"/>
      <point x="766" y="1192"/>
      <point x="602" y="1192" type="curve" smooth="yes"/>
      <point x="418" y="1192"/>
      <point x="287" y="1311"/>
      <point x="287" y="1479" type="curve" smooth="yes"/>
      <point x="287" y="1743"/>
      <point x="644" y="1916"/>
      <point x="1057" y="1916" type="curve" smooth="yes"/>
      <point x="1733" y="1916"/>
      <point x="1909" y="1623"/>
      <point x="1909" y="1250" type="curve" smooth="yes"/>
      <point x="1909" y="178" type="line" smooth="yes"/>
      <point x="1909" y="86"/>
      <point x="1960" y="25"/>
      <point x="2058" y="25" type="curve" smooth="yes"/>
      <point x="2124" y="25"/>
      <point x="2267" y="86"/>
      <point x="2351" y="258" type="curve"/>
    </contour>
    <contour>
      <point x="1040" y="1032" type="curve" smooth="yes"/>
      <point x="1548" y="1032" type="line"/>
      <point x="1548" y="1024" type="line"/>
      <point x="1183" y="1024" type="line" smooth="yes"/>
      <point x="933" y="1024"/>
      <point x="766" y="784"/>
      <point x="766" y="510" type="curve" smooth="yes"/>
      <point x="766" y="256"/>
      <point x="854" y="117"/>
      <point x="997" y="117" type="curve" smooth="yes"/>
      <point x="1165" y="117"/>
      <point x="1335" y="267"/>
      <point x="1335" y="742" type="curve"/>
      <point x="1344" y="742" type="line"/>
      <point x="1344" y="234"/>
      <point x="1150" y="-40"/>
      <point x="696" y="-40" type="curve" smooth="yes"/>
      <point x="372" y="-40"/>
      <point x="143" y="158"/>
      <point x="143" y="462" type="curve" smooth="yes"/>
      <point x="143" y="806"/>
      <point x="438" y="1032"/>
    </contour>
  </outline>
</glyph>
<glyph name="b" format="2">
  <advance width="2530"/>
  <unicode hex="0062"/>
  <outline>
    <contour>
      <point x="893" y="942" type="curve" smooth="yes"/>
      <point x="893" y="1564"/>
      <point x="1120" y="1922"/>
      <point x="1540" y="1922" type="curve" smooth="yes"/>
      <point x="1986" y="1922"/>
      <point x="2409" y="1556"/>
      <point x="2409" y="942" type="curve" smooth="yes"/>
      <point x="2409" y="328"/>
      <point x="1986" y="-40"/>
      <point x="1540" y="-40" type="curve" smooth="yes"/>
      <point x="1122" y="-40"/>
      <point x="893" y="320"/>
    </contour>
    <contour>
      <point x="901" y="942" type="curve" smooth="yes"/>
      <point x="901" y="312"/>
      <point x="1155" y="6"/>
      <point x="1417" y="6" type="curve" smooth="yes"/>
      <point x="1659" y="6"/>
      <point x="1753" y="353"/>
      <point x="1753" y="942" type="curve" smooth="yes"/>
      <point x="1753" y="1531"/>
      <point x="1659" y="1874"/>
      <point x="1417" y="1874" type="curve" smooth="yes"/>
      <point x="1155" y="1874"/>
      <point x="901" y="1572"/>
    </contour>
    <contour>
      <point x="328" y="3064" type="line"/>
      <point x="61" y="3064" type="line"/>
      <point x="61" y="3072" type="line"/>
      <point x="901" y="3072" type="line"/>
      <point x="901" y="0" type="line"/>
      <point x="61" y="0" type="line"/>
      <point x="61" y="8" type="line"/>
      <point x="328" y="8" type="line"/>
    </contour>
  </outline>
</glyph>
<glyph name="c" format="2">
  <advance width="4088"/>
  <unicode hex="0063"/>
  <outline>
    <contour>
      <point x="3656" y="3008" type="curve"/>
      <point x="3520" y="3408"/>
      <point x="2976" y="3728"/>
      <point x="2408" y="3728" type="curve" smooth="yes"/>
      <point x="1656" y="3728"/>
      <point x="1560" y="2592"/>
      <point x="1560" y="1840" type="curve" smooth="yes"/>
      <point x="1560" y="928"/>
      <point x="1728" y="-24"/>
      <point x="2400" y="-24" type="curve" smooth="yes"/>
      <point x="3088" y="-24"/>
      <point x="3560" y="456"/>
      <point x="3768" y="1144" type="curve"/>
      <point x="3784" y="1144" type="line"/>
      <point x="3576" y="448"/>
      <point x="3112" y="-80"/>
      <point x="2224" y="-80" type="curve" smooth="yes"/>
      <point x="1056" y="-80"/>
      <point x="240" y="560"/>
      <point x="240" y="1840" type="curve" smooth="yes"/>
      <point x="240" y="2960"/>
      <point x="944" y="3760"/>
      <point x="2272" y="3760" type="curve" smooth="yes"/>
      <point x="3128" y="3760"/>
      <point x="3776" y="3288"/>
      <point x="3776" y="2672" type="curve" smooth="yes"/>
      <point x="3776" y="2264"/>
      <point x="3504" y="2032"/>
      <point x="3144" y="2032" type="curve" smooth="yes"/>
      <point x="2824" y="2032"/>
      <point x="2488" y="2192"/>
      <point x="2488" y="2656" type="curve" smooth="yes"/>
      <point x="2488" y="3056"/>
      <point x="2832" y="3264"/>
      <point x="3104" y="3264" type="curve" smooth="yes"/>
      <point x="3376" y="3264"/>
      <point x="3560" y="3144"/>
    </contour>
  </outline>
</glyph>
<glyph name="d" format="2">
  <advance width="2530"/>
  <unicode hex="0064"/>
  <outline>
    <contour>
      <point x="1638" y="940" type="curve" smooth="yes"/>
      <point x="1638" y="318"/>
      <point x="1411" y="-38"/>
      <point x="991" y="-38" type="curve" smooth="yes"/>
      <point x="545" y="-38"/>
      <point x="123" y="326"/>
      <point x="123" y="940" type="curve" smooth="yes"/>
      <point x="123" y="1554"/>
      <point x="545" y="1924"/>
      <point x="991" y="1924" type="curve" smooth="yes"/>
      <point x="1409" y="1924"/>
      <point x="1638" y="1562"/>
    </contour>
    <contour>
      <point x="1630" y="940" type="curve" smooth="yes"/>
      <point x="1630" y="1570"/>
      <point x="1377" y="1876"/>
      <point x="1115" y="1876" type="curve" smooth="yes"/>
      <point x="873" y="1876"/>
      <point x="779" y="1529"/>
      <point x="779" y="940" type="curve" smooth="yes"/>
      <point x="779" y="351"/>
      <point x="873" y="8"/>
      <point x="1115" y="8" type="curve" smooth="yes"/>
      <point x="1377" y="8"/>
      <point x="1630" y="310"/>
    </contour>
    <contour>
      <point x="2470" y="8" type="line"/>
      <point x="2470" y="0" type="line"/>
      <point x="1630" y="0" type="line"/>
      <point x="1630" y="3064" type="line"/>
      <point x="1364" y="3064" type="line"/>
      <point x="1364" y="3072" type="line"/>
      <point x="2204" y="3072" type="line"/>
      <point x="2204" y="8" type="line"/>
    </contour>
  </outline>
</glyph>
<glyph name="f" format="2">
  <advance width="3080"/>
  <unicode hex="0066"/>
  <outline>
    <contour>
      <point x="80" y="16" type="line"/>
      <point x="2760" y="16" type="line"/>
      <point x="2760" y="0" type="line"/>
      <point x="80" y="0" type="line"/>
    </contour>
    <contour>
      <point x="80" y="3680" type="line"/>
      <point x="2920" y="3680" type="line"/>
      <point x="2920" y="3664" type="line"/>
      <point x="80" y="3664" type="line"/>
    </contour>
    <contour>
      <point x="3736" y="5400" type="curve"/>
      <point x="3656" y="5672"/>
      <point x="3360" y="6064"/>
      <point x="2696" y="6064" type="curve" smooth="yes"/>
      <point x="2056" y="6064"/>
      <point x="1840" y="5336"/>
      <point x="1840" y="4320" type="curve" smooth="yes"/>
      <point x="1840" y="0" type="line"/>
      <point x="760" y="0" type="line"/>
      <point x="760" y="4096" type="line" smooth="yes"/>
      <point x="760" y="5224"/>
      <point x="1536" y="6080"/>
      <point x="2696" y="6080" type="curve" smooth="yes"/>
      <point x="3384" y="6080"/>
      <point x="3800" y="5624"/>
      <point x="3800" y="5168" type="curve" smooth="yes"/>
      <point x="3800" y="4760"/>
      <point x="3544" y="4512"/>
      <point x="3184" y="4512" type="curve" smooth="yes"/>
      <point x="2864" y="4512"/>
      <point x="2536" y="4720"/>
      <point x="2536" y="5112" type="curve" smooth="yes"/>
      <point x="2536" y="5496"/>
      <point x="2840" y="5728"/>
      <point x="3160" y="5728" type="curve" smooth="yes"/>
      <point x="3416" y="5728"/>
      <point x="3608" y="5600"/>
    </contour>
  </outline>
</glyph>
<glyph name="g" format="2">
  <advance width="4896"/>
  <unicode hex="0067"/>
  <outline>
    <contour>
      <point x="376" y="512" type="curve" smooth="yes"/>
      <point x="376" y="1104"/>
      <point x="1272" y="1328"/>
      <point x="1952" y="1328" type="curve"/>
      <point x="1952" y="1312" type="line"/>
      <point x="1608" y="1312"/>
      <point x="1080" y="1208"/>
      <point x="1080" y="912" type="curve" smooth="yes"/>
      <point x="1080" y="672"/>
      <point x="1456" y="672"/>
      <point x="1896" y="672" type="curve" smooth="yes"/>
      <point x="2176" y="672"/>
      <point x="2360" y="680"/>
      <point x="2584" y="680" type="curve" smooth="yes"/>
      <point x="3184" y="680"/>
      <point x="3920" y="432"/>
      <point x="3920" y="-656" type="curve" smooth="yes"/>
      <point x="3920" y="-1624"/>
      <point x="3120" y="-2080"/>
      <point x="2040" y="-2080" type="curve" smooth="yes"/>
      <point x="1096" y="-2080"/>
      <point x="120" y="-1800"/>
      <point x="120" y="-1080" type="curve" smooth="yes"/>
      <point x="120" y="-392"/>
      <point x="1000" y="-256"/>
      <point x="1360" y="-256" type="curve" smooth="yes"/>
      <point x="1400" y="-256" type="line"/>
      <point x="1120" y="-408"/>
      <point x="1080" y="-720"/>
      <point x="1080" y="-896" type="curve" smooth="yes"/>
      <point x="1080" y="-1520"/>
      <point x="1424" y="-2056"/>
      <point x="2112" y="-2056" type="curve" smooth="yes"/>
      <point x="2864" y="-2056"/>
      <point x="3744" y="-1728"/>
      <point x="3744" y="-992" type="curve" smooth="yes"/>
      <point x="3744" y="-480"/>
      <point x="3120" y="-272"/>
      <point x="2600" y="-272" type="curve" smooth="yes"/>
      <point x="2392" y="-272"/>
      <point x="1944" y="-272"/>
      <point x="1768" y="-272" type="curve" smooth="yes"/>
      <point x="1048" y="-272"/>
      <point x="376" y="-104"/>
    </contour>
    <contour>
      <point x="1480" y="2520" type="curve" smooth="yes"/>
      <point x="1480" y="1848"/>
      <point x="1520" y="1328"/>
      <point x="1952" y="1328" type="curve" smooth="yes"/>
      <point x="2264" y="1328"/>
      <point x="2424" y="1848"/>
      <point x="2424" y="2520" type="curve" smooth="yes"/>
      <point x="2424" y="3192"/>
      <point x="2264" y="3744"/>
      <point x="1952" y="3744" type="curve" smooth="yes"/>
      <point x="1640" y="3744"/>
      <point x="1480" y="3192"/>
    </contour>
    <contour>
      <point x="320" y="2520" type="curve" smooth="yes"/>
      <point x="320" y="3400"/>
      <point x="1184" y="3760"/>
      <point x="1952" y="3760" type="curve" smooth="yes"/>
      <point x="2720" y="3760"/>
      <point x="3584" y="3400"/>
      <point x="3584" y="2520" type="curve" smooth="yes"/>
      <point x="3584" y="1640"/>
      <point x="2720" y="1312"/>
      <point x="1952" y="1312" type="curve" smooth="yes"/>
      <point x="1184" y="1312"/>
      <point x="320" y="1640"/>
    </contour>
    <contour>
      <point x="4792" y="3136" type="curve"/>
      <point x="4752" y="3400"/>
      <point x="4528" y="3704"/>
      <point x="4048" y="3704" type="curve" smooth="yes"/>
      <point x="3640" y="3704"/>
      <point x="3160" y="3472"/>
      <point x="3000" y="2776" type="curve"/>
      <point x="2984" y="2776" type="line"/>
      <point x="3144" y="3504"/>
      <point x="3648" y="3720"/>
      <point x="4048" y="3720" type="curve" smooth="yes"/>
      <point x="4576" y="3720"/>
      <point x="4816" y="3360"/>
      <point x="4816" y="3056" type="curve" smooth="yes"/>
      <point x="4816" y="2616"/>
      <point x="4544" y="2472"/>
      <point x="4304" y="2472" type="curve" smooth="yes"/>
      <point x="4064" y="2472"/>
      <point x="3808" y="2632"/>
      <point x="3808" y="2976" type="curve" smooth="yes"/>
      <point x="3808" y="3240"/>
      <point x="4016" y="3448"/>
      <point x="4304" y="3448" type="curve" smooth="yes"/>
      <point x="4528" y="3448"/>
      <point x="4744" y="3296"/>
    </contour>
  </outline>
</glyph>
<glyph name="h" format="2">
  <advance width="605"/>
  <unicode hex="0068"/>
  <outline>
    <contour>
      <point x="385" y="318" type="line" smooth="yes"/>
      <point x="385" y="402"/>
      <point x="378" y="444"/>
      <point x="336" y="444" type="curve" smooth="yes"/>
      <point x="236" y="444"/>
      <point x="220" y="313"/>
      <point x="220" y="223" type="curve"/>
      <point x="218" y="220" type="line"/>
      <point x="218" y="319"/>
      <point x="233" y="470"/>
      <point x="383" y="470" type="curve" smooth="yes"/>
      <point x="495" y="470"/>
      <point x="525" y="406"/>
      <point x="525" y="319" type="curve" smooth="yes"/>
      <point x="525" y="0" type="line"/>
      <point x="385" y="0" type="line"/>
    </contour>
    <contour>
      <point x="335" y="2" type="line"/>
      <point x="590" y="2" type="line"/>
      <point x="590" y="0" type="line"/>
      <point x="335" y="0" type="line"/>
    </contour>
    <contour>
      <point x="15" y="2" type="line"/>
      <point x="270" y="2" type="line"/>
      <point x="270" y="0" type="line"/>
      <point x="15" y="0" type="line"/>
    </contour>
    <contour>
      <point x="80" y="748" type="line"/>
      <point x="15" y="748" type="line"/>
      <point x="15" y="750" type="line"/>
      <point x="220" y="750" type="line"/>
      <point x="220" y="0" type="line"/>
      <point x="80" y="0" type="line"/>
    </contour>
  </outline>
</glyph>
<glyph name="i" format="2">
  <advance width="302"/>
  <unicode hex="0069"/>
  <outline>
    <contour>
      <point x="20" y="2" type="line"/>
      <point x="290" y="2" type="line"/>
      <point x="290" y="0" type="line"/>
      <point x="20" y="0" type="line"/>
    </contour>
    <contour>
      <point x="60" y="675" type="curve" smooth="yes"/>
      <point x="60" y="723"/>
      <point x="97" y="760"/>
      <point x="145" y="760" type="curve" smooth="yes"/>
      <point x="193" y="760"/>
      <point x="230" y="723"/>
      <point x="230" y="675" type="curve" smooth="yes"/>
      <point x="230" y="627"/>
      <point x="193" y="590"/>
      <point x="145" y="590" type="curve" smooth="yes"/>
      <point x="97" y="590"/>
      <point x="60" y="627"/>
    </contour>
    <contour>
      <point x="85" y="458" type="line"/>
      <point x="20" y="458" type="line"/>
      <point x="20" y="460" type="line"/>
      <point x="225" y="460" type="line"/>
      <point x="225" y="0" type="line"/>
      <point x="85" y="0" type="line"/>
    </contour>
  </outline>
</glyph>
<glyph name="j" format="2">
  <advance width="2496"/>
  <unicode hex="006A"/>
  <outline>
    <contour>
      <point x="616" y="5400" type="curve" smooth="yes"/>
      <point x="616" y="5784"/>
      <point x="912" y="6080"/>
      <point x="1296" y="6080" type="curve" smooth="yes"/>
      <point x="1680" y="6080"/>
      <point x="1976" y="5784"/>
      <point x="1976" y="5400" type="curve" smooth="yes"/>
      <point x="1976" y="5016"/>
      <point x="1680" y="4720"/>
      <point x="1296" y="4720" type="curve" smooth="yes"/>
      <point x="912" y="4720"/>
      <point x="616" y="5016"/>
    </contour>
    <contour>
      <point x="1920" y="3680" type="line"/>
      <point x="1920" y="-96" type="line" smooth="yes"/>
      <point x="1920" y="-1144"/>
      <point x="1304" y="-2080"/>
      <point x="184" y="-2080" type="curve" smooth="yes"/>
      <point x="-544" y="-2080"/>
      <point x="-1040" y="-1648"/>
      <point x="-1040" y="-1120" type="curve" smooth="yes"/>
      <point x="-1040" y="-720"/>
      <point x="-736" y="-472"/>
      <point x="-384" y="-472" type="curve" smooth="yes"/>
      <point x="-64" y="-472"/>
      <point x="264" y="-664"/>
      <point x="264" y="-1064" type="curve" smooth="yes"/>
      <point x="264" y="-1448"/>
      <point x="0" y="-1672"/>
      <point x="-416" y="-1672" type="curve" smooth="yes"/>
      <point x="-760" y="-1672"/>
      <point x="-984" y="-1440"/>
      <point x="-1024" y="-1200" type="curve"/>
      <point x="-1008" y="-1632"/>
      <point x="-544" y="-2048"/>
      <point x="80" y="-2048" type="curve" smooth="yes"/>
      <point x="920" y="-2048"/>
      <point x="784" y="-840"/>
      <point x="784" y="176" type="curve" smooth="yes"/>
      <point x="800" y="3664" type="line"/>
      <point x="120" y="3664" type="line"/>
      <point x="120" y="3680" type="line"/>
    </contour>
  </outline>
</glyph>
<glyph name="k" format="2">
  <advance width="626"/>
  <unicode hex="006B"/>
  <outline>
    <contour>
      <point x="583" y="0" type="line"/>
      <point x="410" y="0" type="line"/>
      <point x="212" y="266" type="line"/>
      <point x="484" y="460" type="line"/>
      <point x="487" y="460" type="line"/>
      <point x="319" y="338" type="line"/>
    </contour>
    <contour>
      <point x="344" y="2" type="line"/>
      <point x="621" y="2" type="line"/>
      <point x="621" y="0" type="line"/>
      <point x="344" y="0" type="line"/>
    </contour>
    <contour>
      <point x="572" y="458" type="line"/>
      <point x="359" y="458" type="line"/>
      <point x="359" y="460" type="line"/>
      <point x="572" y="460" type="line"/>
    </contour>
    <contour>
      <point x="15" y="2" type="line"/>
      <point x="295" y="2" type="line"/>
      <point x="295" y="0" type="line"/>
      <point x="15" y="0" type="line"/>
    </contour>
    <contour>
      <point x="100" y="748" type="line"/>
      <point x="15" y="748" type="line"/>
      <point x="15" y="750" type="line"/>
      <point x="240" y="750" type="line"/>
      <point x="240" y="0" type="line"/>
      <point x="100" y="0" type="line"/>
    </contour>
  </outline>
</glyph>
<glyph name="l" format="2">
  <advance width="1391"/>
  <unicode hex="006C"/>
  <outline>
    <contour>
      <point x="61" y="8" type="line"/>
      <point x="1331" y="8" type="line"/>
      <point x="1331" y="0" type="line"/>
      <point x="61" y="0" type="line"/>
    </contour>
    <contour>
      <point x="410" y="3064" type="line"/>
      <point x="61" y="3064" type="line"/>
      <point x="61" y="3072" type="line"/>
      <point x="983" y="3072" type="line"/>
      <point x="983" y="0" type="line"/>
      <point x="410" y="0" type="line"/>
    </contour>
  </outline>
</glyph>
<glyph name="m" format="2">
  <advance width="3563"/>
  <unicode hex="006D"/>
  <outline>
    <contour>
      <point x="2069" y="1306" type="curve" smooth="yes"/>
      <point x="2069" y="0" type="line"/>
      <point x="1496" y="0" type="line"/>
      <point x="1496" y="1303" type="line" smooth="yes"/>
      <point x="1496" y="1647"/>
      <point x="1463" y="1818"/>
      <point x="1311" y="1818" type="curve" smooth="yes"/>
      <point x="983" y="1818"/>
      <point x="901" y="1313"/>
      <point x="901" y="914" type="curve"/>
      <point x="893" y="903" type="line"/>
      <point x="893" y="1309"/>
      <point x="941" y="1926"/>
      <point x="1517" y="1926" type="curve" smooth="yes"/>
      <point x="1931" y="1926"/>
      <point x="2069" y="1662"/>
    </contour>
    <contour>
      <point x="61" y="8" type="line"/>
      <point x="1096" y="8" type="line"/>
      <point x="1096" y="0" type="line"/>
      <point x="61" y="0" type="line"/>
    </contour>
    <contour>
      <point x="1301" y="8" type="line"/>
      <point x="2263" y="8" type="line"/>
      <point x="2263" y="0" type="line"/>
      <point x="1301" y="0" type="line"/>
    </contour>
    <contour>
      <point x="2468" y="8" type="line"/>
      <point x="3502" y="8" type="line"/>
      <point x="3502" y="0" type="line"/>
      <point x="2468" y="0" type="line"/>
    </contour>
    <contour>
      <point x="328" y="1876" type="line"/>
      <point x="61" y="1876" type="line"/>
      <point x="61" y="1884" type="line"/>
      <point x="901" y="1884" type="line"/>
      <point x="901" y="0" type="line"/>
      <point x="328" y="0" type="line"/>
    </contour>
    <contour>
      <point x="3236" y="1306" type="curve" smooth="yes"/>
      <point x="3236" y="0" type="line"/>
      <point x="2662" y="0" type="line"/>
      <point x="2662" y="1303" type="line" smooth="yes"/>
      <point x="2662" y="1647"/>
      <point x="2631" y="1818"/>
      <point x="2479" y="1818" type="curve" smooth="yes"/>
      <point x="2151" y="1818"/>
      <point x="2069" y="1313"/>
      <point x="2069" y="914" type="curve"/>
      <point x="2061" y="903" type="line"/>
      <point x="2061" y="1309"/>
      <point x="2109" y="1926"/>
      <point x="2685" y="1926" type="curve" smooth="yes"/>
      <point x="3099" y="1926"/>
      <point x="3236" y="1662"/>
    </contour>
  </outline>
</glyph>
<glyph name="n" format="2">
  <advance width="2477"/>
  <unicode hex="006E"/>
  <outline>
    <contour>
      <point x="1576" y="1303" type="line" smooth="yes"/>
      <point x="1576" y="1647"/>
      <point x="1551" y="1818"/>
      <point x="1379" y="1818" type="curve" smooth="yes"/>
      <point x="971" y="1818"/>
      <point x="901" y="1282"/>
      <point x="901" y="914" type="curve"/>
      <point x="893" y="903" type="line"/>
      <point x="893" y="1309"/>
      <point x="952" y="1926"/>
      <point x="1569" y="1926" type="curve" smooth="yes"/>
      <point x="2028" y="1926"/>
      <point x="2151" y="1662"/>
      <point x="2151" y="1306" type="curve" smooth="yes"/>
      <point x="2151" y="0" type="line"/>
      <point x="1576" y="0" type="line"/>
    </contour>
    <contour>
      <point x="1373" y="8" type="line"/>
      <point x="2417" y="8" type="line"/>
      <point x="2417" y="0" type="line"/>
      <point x="1373" y="0" type="line"/>
    </contour>
    <contour>
      <point x="61" y="8" type="line"/>
      <point x="1106" y="8" type="line"/>
      <point x="1106" y="0" type="line"/>
      <point x="61" y="0" type="line"/>
    </contour>
    <contour>
      <point x="328" y="1876" type="line"/>
      <point x="61" y="1876" type="line"/>
      <point x="61" y="1884" type="line"/>
      <point x="901" y="1884" type="line"/>
      <point x="901" y="0" type="line"/>
      <point x="328" y="0" type="line"/>
    </contour>
  </outline>
</glyph>
<glyph name="p" format="2">
  <advance width="2580"/>
  <unicode hex="0070"/>
  <outline>
    <contour>
      <point x="918" y="942" type="curve" smooth="yes"/>
      <point x="918" y="1564"/>
      <point x="1145" y="1922"/>
      <point x="1565" y="1922" type="curve" smooth="yes"/>
      <point x="2011" y="1922"/>
      <point x="2434" y="1556"/>
      <point x="2434" y="942" type="curve" smooth="yes"/>
      <point x="2434" y="328"/>
      <point x="2011" y="-40"/>
      <point x="1565" y="-40" type="curve" smooth="yes"/>
      <point x="1147" y="-40"/>
      <point x="918" y="320"/>
    </contour>
    <contour>
      <point x="926" y="942" type="curve" smooth="yes"/>
      <point x="926" y="312"/>
      <point x="1180" y="6"/>
      <point x="1442" y="6" type="curve" smooth="yes"/>
      <point x="1684" y="6"/>
      <point x="1778" y="353"/>
      <point x="1778" y="942" type="curve" smooth="yes"/>
      <point x="1778" y="1531"/>
      <point x="1684" y="1874"/>
      <point x="1442" y="1874" type="curve" smooth="yes"/>
      <point x="1180" y="1874"/>
      <point x="926" y="1572"/>
    </contour>
    <contour>
      <point x="86" y="-1016" type="line"/>
      <point x="1192" y="-1016" type="line"/>
      <point x="1192" y="-1024" type="line"/>
      <point x="86" y="-1024" type="line"/>
    </contour>
    <contour>
      <point x="353" y="1876" type="line"/>
      <point x="86" y="1876" type="line"/>
      <point x="86" y="1884" type="line"/>
      <point x="926" y="1884" type="line"/>
      <point x="926" y="-1024" type="line"/>
      <point x="353" y="-1024" type="line"/>
    </contour>
  </outline>
</glyph>
<glyph name="q" format="2">
  <advance width="618"/>
  <unicode hex="0071"/>
  <outline>
    <contour>
      <point x="400" y="230" type="curve" smooth="yes"/>
      <point x="400" y="78"/>
      <point x="344" y="-10"/>
      <point x="242" y="-10" type="curve" smooth="yes"/>
      <point x="133" y="-10"/>
      <point x="30" y="80"/>
      <point x="30" y="230" type="curve" smooth="yes"/>
      <point x="30" y="380"/>
      <point x="133" y="470"/>
      <point x="242" y="470" type="curve" smooth="yes"/>
      <point x="344" y="470"/>
      <point x="400" y="382"/>
    </contour>
    <contour>
      <point x="398" y="230" type="curve" smooth="yes"/>
      <point x="398" y="384"/>
      <point x="336" y="458"/>
      <point x="272" y="458" type="curve" smooth="yes"/>
      <point x="213" y="458"/>
      <point x="190" y="374"/>
      <point x="190" y="230" type="curve" smooth="yes"/>
      <point x="190" y="86"/>
      <point x="213" y="2"/>
      <point x="272" y="2" type="curve" smooth="yes"/>
      <point x="336" y="2"/>
      <point x="398" y="76"/>
    </contour>
    <contour>
      <point x="603" y="-248" type="line"/>
      <point x="603" y="-250" type="line"/>
      <point x="333" y="-250" type="line"/>
      <point x="333" y="-248" type="line"/>
    </contour>
    <contour>
      <point x="603" y="460" type="line"/>
      <point x="603" y="458" type="line"/>
      <point x="538" y="458" type="line"/>
      <point x="538" y="-250" type="line"/>
      <point x="398" y="-250" type="line"/>
      <point x="398" y="460" type="line"/>
    </contour>
  </outline>
</glyph>
<glyph name="r" format="2">
  <advance width="1912"/>
  <unicode hex="0072"/>
  <outline>
    <contour>
      <point x="1867" y="1606" type="curve"/>
      <point x="1809" y="1803"/>
      <point x="1616" y="1916"/>
      <point x="1433" y="1916" type="curve" smooth="yes"/>
      <point x="932" y="1916"/>
      <point x="901" y="1377"/>
      <point x="901" y="914" type="curve"/>
      <point x="893" y="914" type="line"/>
      <point x="893" y="1414"/>
      <point x="938" y="1926"/>
      <point x="1433" y="1926" type="curve" smooth="yes"/>
      <point x="1662" y="1926"/>
      <point x="1893" y="1753"/>
      <point x="1893" y="1491" type="curve" smooth="yes"/>
      <point x="1893" y="1300"/>
      <point x="1770" y="1139"/>
      <point x="1553" y="1139" type="curve" smooth="yes"/>
      <point x="1356" y="1139"/>
      <point x="1208" y="1263"/>
      <point x="1208" y="1466" type="curve" smooth="yes"/>
      <point x="1208" y="1810"/>
      <point x="1693" y="1944"/>
    </contour>
    <contour>
      <point x="61" y="8" type="line"/>
      <point x="1167" y="8" type="line"/>
      <point x="1167" y="0" type="line"/>
      <point x="61" y="0" type="line"/>
    </contour>
    <contour>
      <point x="328" y="1876" type="line"/>
      <point x="61" y="1876" type="line"/>
      <point x="61" y="1884" type="line"/>
      <point x="901" y="1884" type="line"/>
      <point x="901" y="0" type="line"/>
      <point x="328" y="0" type="line"/>
    </contour>
  </outline>
</glyph>
<glyph name="s" format="2">
  <advance width="3520"/>
  <unicode hex="0073"/>
  <outline>
    <contour>
      <point x="2880" y="2992" type="curve"/>
      <point x="2776" y="3160"/>
      <point x="2656" y="3296"/>
      <point x="2528" y="3416" type="curve"/>
      <point x="3024" y="3760" type="line"/>
      <point x="3040" y="3760" type="line"/>
      <point x="3040" y="2640" type="line"/>
      <point x="3024" y="2640" type="line"/>
      <point x="3016" y="2712"/>
      <point x="2912" y="2928"/>
    </contour>
    <contour>
      <point x="3040" y="2640" type="curve"/>
      <point x="3024" y="2640" type="line"/>
      <point x="2864" y="3160"/>
      <point x="2384" y="3736"/>
      <point x="1616" y="3736" type="curve" smooth="yes"/>
      <point x="1152" y="3736"/>
      <point x="880" y="3512"/>
      <point x="880" y="3208" type="curve" smooth="yes"/>
      <point x="880" y="2328"/>
      <point x="3320" y="2680"/>
      <point x="3320" y="1176" type="curve" smooth="yes"/>
      <point x="3320" y="344"/>
      <point x="2608" y="-80"/>
      <point x="1872" y="-80" type="curve" smooth="yes"/>
      <point x="1080" y="-80"/>
      <point x="504" y="416"/>
      <point x="304" y="1160" type="curve"/>
      <point x="320" y="1160" type="line"/>
      <point x="512" y="424"/>
      <point x="1104" y="-64"/>
      <point x="1856" y="-64" type="curve" smooth="yes"/>
      <point x="2376" y="-64"/>
      <point x="2736" y="168"/>
      <point x="2736" y="576" type="curve" smooth="yes"/>
      <point x="2736" y="1472"/>
      <point x="376" y="1032"/>
      <point x="376" y="2600" type="curve" smooth="yes"/>
      <point x="376" y="3232"/>
      <point x="856" y="3752"/>
      <point x="1616" y="3752" type="curve" smooth="yes"/>
      <point x="2400" y="3752"/>
      <point x="2880" y="3168"/>
    </contour>
    <contour>
      <point x="320" y="-80" type="line"/>
      <point x="304" y="-80" type="line"/>
      <point x="304" y="1160" type="line"/>
      <point x="312" y="1160" type="line"/>
      <point x="320" y="1008"/>
      <point x="440" y="800"/>
      <point x="472" y="736" type="curve"/>
      <point x="592" y="528"/>
      <point x="704" y="400"/>
      <point x="816" y="304" type="curve"/>
    </contour>
  </outline>
</glyph>
<glyph name="t" format="2">
  <advance width="1464"/>
  <unicode hex="0074"/>
  <outline>
    <contour>
      <point x="20" y="1884" type="line"/>
      <point x="1331" y="1884" type="line"/>
      <point x="1331" y="1876" type="line"/>
      <point x="20" y="1876" type="line"/>
    </contour>
    <contour>
      <point x="1454" y="418" type="line"/>
      <point x="1356" y="156"/>
      <point x="1126" y="-28"/>
      <point x="794" y="-28" type="curve" smooth="yes"/>
      <point x="397" y="-28"/>
      <point x="320" y="188"/>
      <point x="320" y="475" type="curve" smooth="yes"/>
      <point x="320" y="2294" type="line"/>
      <point x="504" y="2294"/>
      <point x="750" y="2334"/>
      <point x="893" y="2416" type="curve"/>
      <point x="893" y="337" type="line" smooth="yes"/>
      <point x="893" y="133"/>
      <point x="938" y="55"/>
      <point x="1048" y="55" type="curve" smooth="yes"/>
      <point x="1183" y="55"/>
      <point x="1354" y="191"/>
      <point x="1446" y="418" type="curve"/>
    </contour>
  </outline>
</glyph>
<glyph name="u" format="2">
  <advance width="2477"/>
  <unicode hex="0075"/>
  <outline>
    <contour>
      <point x="901" y="1884" type="line"/>
      <point x="901" y="581" type="line" smooth="yes"/>
      <point x="901" y="237"/>
      <point x="928" y="66"/>
      <point x="1100" y="66" type="curve" smooth="yes"/>
      <point x="1508" y="66"/>
      <point x="1576" y="602"/>
      <point x="1576" y="970" type="curve"/>
      <point x="1586" y="981" type="line"/>
      <point x="1586" y="575"/>
      <point x="1527" y="-40"/>
      <point x="910" y="-40" type="curve" smooth="yes"/>
      <point x="451" y="-40"/>
      <point x="328" y="222"/>
      <point x="328" y="578" type="curve" smooth="yes"/>
      <point x="328" y="1876" type="line"/>
      <point x="61" y="1876" type="line"/>
      <point x="61" y="1884" type="line"/>
    </contour>
    <contour>
      <point x="2151" y="8" type="line"/>
      <point x="2417" y="8" type="line"/>
      <point x="2417" y="0" type="line"/>
      <point x="1576" y="0" type="line"/>
      <point x="1576" y="1876" type="line"/>
      <point x="1311" y="1876" type="line"/>
      <point x="1311" y="1884" type="line"/>
      <point x="2151" y="1884" type="line"/>
    </contour>
  </outline>
</glyph>
<glyph name="v" format="2">
  <advance width="2309"/>
  <unicode hex="0076"/>
  <outline>
    <contour>
      <point x="2300" y="1876" type="line"/>
      <point x="1547" y="1876" type="line"/>
      <point x="1547" y="1884" type="line"/>
      <point x="2300" y="1884" type="line"/>
    </contour>
    <contour>
      <point x="1182" y="1876" type="line"/>
      <point x="-10" y="1876" type="line"/>
      <point x="-10" y="1884" type="line"/>
      <point x="1182" y="1884" type="line"/>
    </contour>
    <contour>
      <point x="1376" y="490" type="line"/>
      <point x="1945" y="1884" type="line"/>
      <point x="1958" y="1884" type="line"/>
      <point x="1174" y="-40" type="line"/>
      <point x="1026" y="-40" type="line"/>
      <point x="236" y="1884" type="line"/>
      <point x="870" y="1884" type="line"/>
    </contour>
  </outline>
</glyph>
<glyph name="w" format="2">
  <advance width="6520"/>
  <unicode hex="0077"/>
  <outline>
    <contour>
      <point x="2352" y="3664" type="line"/>
      <point x="-16" y="3664" type="line"/>
      <point x="-16" y="3680" type="line"/>
      <point x="2352" y="3680" type="line"/>
    </contour>
    <contour>
      <point x="6496" y="3664" type="line"/>
      <point x="4864" y="3664" type="line"/>
      <point x="4864" y="3680" type="line"/>
      <point x="6496" y="3680" type="line"/>
    </contour>
    <contour>
      <point x="2416" y="1024" type="line"/>
      <point x="3552" y="3760" type="line"/>
      <point x="4096" y="3760" type="line"/>
      <point x="4880" y="1200" type="line"/>
      <point x="5704" y="3680" type="line"/>
      <point x="5728" y="3680" type="line"/>
      <point x="4472" y="-80" type="line"/>
      <point x="4176" y="-80" type="line"/>
      <point x="3136" y="2696" type="line"/>
      <point x="1984" y="-80" type="line"/>
      <point x="1680" y="-80" type="line"/>
      <point x="464" y="3680" type="line"/>
      <point x="1648" y="3680" type="line"/>
    </contour>
  </outline>
</glyph>
<glyph name="x" format="2">
  <advance width="2359"/>
  <unicode hex="0078"/>
  <outline>
    <contour>
      <point x="1195" y="8" type="line"/>
      <point x="2304" y="8" type="line"/>
      <point x="2304" y="0" type="line"/>
      <point x="1195" y="0" type="line"/>
    </contour>
    <contour>
      <point x="55" y="8" type="line"/>
      <point x="789" y="8" type="line"/>
      <point x="789" y="0" type="line"/>
      <point x="55" y="0" type="line"/>
    </contour>
    <contour>
      <point x="1227" y="1876" type="line"/>
      <point x="76" y="1876" type="line"/>
      <point x="76" y="1884" type="line"/>
      <point x="1227" y="1884" type="line"/>
    </contour>
    <contour>
      <point x="2253" y="1876" type="line"/>
      <point x="1561" y="1876" type="line"/>
      <point x="1561" y="1884" type="line"/>
      <point x="2253" y="1884" type="line"/>
    </contour>
    <contour>
      <point x="2140" y="0" type="line"/>
      <point x="1465" y="0" type="line"/>
      <point x="281" y="1884" type="line"/>
      <point x="936" y="1884" type="line"/>
    </contour>
    <contour>
      <point x="355" y="0" type="line"/>
      <point x="343" y="0" type="line"/>
      <point x="1914" y="1884" type="line"/>
      <point x="1926" y="1884" type="line"/>
    </contour>
  </outline>
</glyph>
<glyph name="y" format="2">
  <advance width="583"/>
  <unicode hex="0079"/>
  <outline>
    <contour>
      <point x="314" y="458" type="line"/>
      <point x="-8" y="458" type="line"/>
      <point x="-8" y="460" type="line"/>
      <point x="314" y="460" type="line"/>
    </contour>
    <contour>
      <point x="596" y="458" type="line"/>
      <point x="420" y="458" type="line"/>
      <point x="420" y="460" type="line"/>
      <point x="596" y="460" type="line"/>
    </contour>
    <contour>
      <point x="379" y="140" type="line"/>
      <point x="302" y="-26" type="line"/>
      <point x="52" y="460" type="line"/>
      <point x="216" y="460" type="line"/>
    </contour>
    <contour>
      <point x="222" y="-200" type="curve"/>
      <point x="521" y="460" type="line"/>
      <point x="524" y="460" type="line"/>
      <point x="227" y="-194" type="line" smooth="yes"/>
      <point x="210" y="-230"/>
      <point x="186" y="-258"/>
      <point x="143" y="-258" type="curve" smooth="yes"/>
      <point x="103" y="-258"/>
      <point x="66" y="-231"/>
      <point x="66" y="-183" type="curve" smooth="yes"/>
      <point x="66" y="-140"/>
      <point x="99" y="-104"/>
      <point x="146" y="-104" type="curve" smooth="yes"/>
      <point x="190" y="-104"/>
      <point x="228" y="-143"/>
    </contour>
  </outline>
</glyph>
<glyph name="z" format="2">
  <advance width="1925"/>
  <unicode hex="007A"/>
  <outline>
    <contour>
      <point x="823" y="1876" type="line" smooth="yes"/>
      <point x="438" y="1876"/>
      <point x="225" y="1594"/>
      <point x="164" y="1180" type="curve"/>
      <point x="156" y="1180" type="line"/>
      <point x="156" y="1884" type="line"/>
      <point x="1798" y="1884" type="line"/>
      <point x="1798" y="1876" type="line"/>
      <point x="688" y="8" type="line"/>
      <point x="1102" y="8" type="line" smooth="yes"/>
      <point x="1582" y="8"/>
      <point x="1794" y="246"/>
      <point x="1855" y="754" type="curve"/>
      <point x="1864" y="754" type="line"/>
      <point x="1864" y="0" type="line"/>
      <point x="41" y="0" type="line"/>
      <point x="41" y="8" type="line"/>
      <point x="1147" y="1876" type="line"/>
    </contour>
  </outline>
</glyph>
<glyph name="cent" format="2">
  <advance width="511"/>
  <unicode hex="00A2"/>
  <outline>
    <contour>
      <point x="282" y="555" type="line"/>
      <point x="282" y="-85" type="line"/>
      <point x="280" y="-85" type="line"/>
      <point x="280" y="555" type="line"/>
    </contour>
    <component base="c"/>
  </outline>
</glyph>
<glyph name="sterling" format="2">
  <advance width="5248"/>
  <unicode hex="00A3"/>
  <outline>
    <contour>
      <point x="5056" y="1736" type="line"/>
      <point x="5056" y="176"/>
      <point x="4488" y="-240"/>
      <point x="3576" y="-240" type="curve" smooth="yes"/>
      <point x="2480" y="-240"/>
      <point x="2000" y="240"/>
      <point x="1496" y="240" type="curve" smooth="yes"/>
      <point x="1168" y="240"/>
      <point x="680" y="80"/>
      <point x="600" y="-160" type="curve"/>
      <point x="584" y="-160" type="line"/>
      <point x="704" y="432"/>
      <point x="1392" y="1256"/>
      <point x="2176" y="1256" type="curve" smooth="yes"/>
      <point x="2896" y="1256"/>
      <point x="3256" y="984"/>
      <point x="3784" y="984" type="curve" smooth="yes"/>
      <point x="4368" y="984"/>
      <point x="5040" y="1080"/>
      <point x="5040" y="1736" type="curve"/>
    </contour>
    <contour>
      <point x="3720" y="3200" type="line"/>
      <point x="3720" y="3184" type="line"/>
      <point x="120" y="3184" type="line"/>
      <point x="120" y="3200" type="line"/>
    </contour>
    <contour>
      <point x="784" y="4400" type="curve" smooth="yes"/>
      <point x="784" y="5520"/>
      <point x="1664" y="6080"/>
      <point x="3072" y="6080" type="curve" smooth="yes"/>
      <point x="4368" y="6080"/>
      <point x="5056" y="5328"/>
      <point x="5056" y="4672" type="curve" smooth="yes"/>
      <point x="5056" y="4224"/>
      <point x="4768" y="3912"/>
      <point x="4384" y="3912" type="curve" smooth="yes"/>
      <point x="4024" y="3912"/>
      <point x="3648" y="4160"/>
      <point x="3648" y="4600" type="curve" smooth="yes"/>
      <point x="3648" y="5000"/>
      <point x="3992" y="5280"/>
      <point x="4344" y="5280" type="curve" smooth="yes"/>
      <point x="4720" y="5280"/>
      <point x="4912" y="5024"/>
      <point x="4992" y="4896" type="curve"/>
      <point x="4856" y="5472"/>
      <point x="4256" y="6032"/>
      <point x="3232" y="6032" type="curve" smooth="yes"/>
      <point x="2400" y="6032"/>
      <point x="2152" y="5352"/>
      <point x="2152" y="4680" type="curve" smooth="yes"/>
      <point x="2152" y="3888"/>
      <point x="2600" y="3520"/>
      <point x="2600" y="2840" type="curve" smooth="yes"/>
      <point x="2600" y="1360"/>
      <point x="488" y="1360"/>
      <point x="592" y="-160" type="curve"/>
      <point x="576" y="-160" type="line"/>
      <point x="424" y="952"/>
      <point x="1432" y="1576"/>
      <point x="1432" y="2088" type="curve" smooth="yes"/>
      <point x="1432" y="3000"/>
      <point x="784" y="3480"/>
    </contour>
  </outline>
</glyph>
<glyph name="section" format="2">
  <advance width="1951"/>
  <unicode hex="00A7"/>
  <outline>
    <contour>
      <point x="553" y="2669" type="curve" smooth="yes"/>
      <point x="553" y="2214"/>
      <point x="1792" y="2213"/>
      <point x="1792" y="1587" type="curve" smooth="yes"/>
      <point x="1792" y="1292"/>
      <point x="1563" y="1190"/>
      <point x="1362" y="1063" type="curve"/>
      <point x="1327" y="1075" type="line"/>
      <point x="1433" y="1155"/>
      <point x="1521" y="1202"/>
      <point x="1521" y="1333" type="curve" smooth="yes"/>
      <point x="1521" y="1787"/>
      <point x="274" y="1703"/>
      <point x="274" y="2449" type="curve" smooth="yes"/>
      <point x="274" y="2875"/>
      <point x="632" y="3112"/>
      <point x="1022" y="3112" type="curve" smooth="yes"/>
      <point x="1362" y="3112"/>
      <point x="1775" y="2975"/>
      <point x="1775" y="2541" type="curve" smooth="yes"/>
      <point x="1775" y="2353"/>
      <point x="1653" y="2206"/>
      <point x="1468" y="2206" type="curve" smooth="yes"/>
      <point x="1305" y="2206"/>
      <point x="1186" y="2329"/>
      <point x="1186" y="2497" type="curve" smooth="yes"/>
      <point x="1186" y="2649"/>
      <point x="1322" y="2777"/>
      <point x="1481" y="2777" type="curve" smooth="yes"/>
      <point x="1584" y="2777"/>
      <point x="1665" y="2728"/>
      <point x="1702" y="2683" type="curve"/>
      <point x="1639" y="2937"/>
      <point x="1337" y="3068"/>
      <point x="1022" y="3068" type="curve" smooth="yes"/>
      <point x="787" y="3068"/>
      <point x="553" y="2886"/>
    </contour>
    <contour>
      <point x="1788" y="664" type="curve" smooth="yes"/>
      <point x="1788" y="238"/>
      <point x="1450" y="-40"/>
      <point x="938" y="-40" type="curve" smooth="yes"/>
      <point x="578" y="-40"/>
      <point x="122" y="102"/>
      <point x="122" y="537" type="curve" smooth="yes"/>
      <point x="122" y="725"/>
      <point x="245" y="872"/>
      <point x="430" y="872" type="curve" smooth="yes"/>
      <point x="593" y="872"/>
      <point x="713" y="750"/>
      <point x="713" y="582" type="curve" smooth="yes"/>
      <point x="713" y="430"/>
      <point x="579" y="309"/>
      <point x="420" y="309" type="curve" smooth="yes"/>
      <point x="297" y="309"/>
      <point x="217" y="379"/>
      <point x="193" y="424" type="curve"/>
      <point x="247" y="144"/>
      <point x="603" y="4"/>
      <point x="938" y="4" type="curve" smooth="yes"/>
      <point x="1319" y="4"/>
      <point x="1479" y="237"/>
      <point x="1479" y="413" type="curve" smooth="yes"/>
      <point x="1479" y="868"/>
      <point x="197" y="828"/>
      <point x="197" y="1434" type="curve" smooth="yes"/>
      <point x="197" y="1749"/>
      <point x="438" y="1922"/>
      <point x="598" y="2028" type="curve"/>
      <point x="641" y="2028" type="line"/>
      <point x="584" y="1978"/>
      <point x="494" y="1878"/>
      <point x="494" y="1749" type="curve" smooth="yes"/>
      <point x="494" y="1295"/>
      <point x="1788" y="1410"/>
    </contour>
  </outline>
</glyph>
<glyph name="copyright" format="2">
  <advance width="3562"/>
  <unicode hex="00A9"/>
  <outline>
    <contour>
      <point x="204" y="1536" type="curve" smooth="yes"/>
      <point x="204" y="2408"/>
      <point x="910" y="3112"/>
      <point x="1782" y="3112" type="curve" smooth="yes"/>
      <point x="2654" y="3112"/>
      <point x="3358" y="2408"/>
      <point x="3358" y="1536" type="curve" smooth="yes"/>
      <point x="3358" y="664"/>
      <point x="2654" y="-40"/>
      <point x="1782" y="-40" type="curve" smooth="yes"/>
      <point x="910" y="-40"/>
      <point x="204" y="664"/>
    </contour>
    <contour>
      <point x="212" y="1536" type="curve" smooth="yes"/>
      <point x="212" y="672"/>
      <point x="918" y="-32"/>
      <point x="1782" y="-32" type="curve" smooth="yes"/>
      <point x="2646" y="-32"/>
      <point x="3350" y="672"/>
      <point x="3350" y="1536" type="curve" smooth="yes"/>
      <point x="3350" y="2400"/>
      <point x="2646" y="3104"/>
      <point x="1782" y="3104" type="curve" smooth="yes"/>
      <point x="918" y="3104"/>
      <point x="212" y="2400"/>
    </contour>
    <component base="C" xScale="0.6" yScale="0.6" xOffset="827" yOffset="614"/>
  </outline>
</glyph>
<glyph name="guillemotleft" format="2">
  <advance width="725"/>
  <unicode hex="00AB"/>
  <outline>
    <contour>
      <point x="491" y="388" type="line"/>
      <point x="666" y="146" type="line"/>
      <point x="665" y="145" type="line"/>
      <point x="305" y="380" type="line"/>
      <point x="305" y="395" type="line"/>
      <point x="665" y="630" type="line"/>
      <point x="666" y="629" type="line"/>
    </contour>
    <contour>
      <point x="201" y="388" type="line"/>
      <point x="386" y="146" type="line"/>
      <point x="385" y="145" type="line"/>
      <point x="25" y="380" type="line"/>
      <point x="25" y="395" type="line"/>
      <point x="385" y="630" type="line"/>
      <point x="386" y="629" type="line"/>
    </contour>
  </outline>
</glyph>
<glyph name="degree" format="2">
  <advance width="320"/>
  <unicode hex="00B0"/>
  <outline>
    <contour>
      <point x="40" y="680" type="curve" smooth="yes"/>
      <point x="40" y="746"/>
      <point x="94" y="800"/>
      <point x="160" y="800" type="curve" smooth="yes"/>
      <point x="226" y="800"/>
      <point x="280" y="746"/>
      <point x="280" y="680" type="curve" smooth="yes"/>
      <point x="280" y="614"/>
      <point x="226" y="560"/>
      <point x="160" y="560" type="curve" smooth="yes"/>
      <point x="94" y="560"/>
      <point x="40" y="614"/>
    </contour>
    <contour>
      <point x="60" y="680" type="curve" smooth="yes"/>
      <point x="60" y="623"/>
      <point x="103" y="580"/>
      <point x="160" y="580" type="curve" smooth="yes"/>
      <point x="217" y="580"/>
      <point x="260" y="623"/>
      <point x="260" y="680" type="curve" smooth="yes"/>
      <point x="260" y="737"/>
      <point x="217" y="780"/>
      <point x="160" y="780" type="curve" smooth="yes"/>
      <point x="103" y="780"/>
      <point x="60" y="737"/>
    </contour>
  </outline>
</glyph>
<glyph name="acute" format="2">
  <advance width="3280"/>
  <unicode hex="00B4"/>
  <outline>
    <contour>
      <point x="2320" y="5600" type="curve" smooth="yes"/>
      <point x="480" y="5792" type="line"/>
      <point x="464" y="5808" type="line"/>
      <point x="2240" y="6464" type="line" smooth="yes"/>
      <point x="2544" y="6584"/>
      <point x="2840" y="6312"/>
      <point x="2840" y="6040" type="curve" smooth="yes"/>
      <point x="2840" y="5768"/>
      <point x="2592" y="5560"/>
    </contour>
  </outline>
</glyph>
<glyph name="mu" format="2">
  <advance width="2527"/>
  <unicode hex="00B5"/>
  <outline>
    <contour>
      <point x="1029" y="-504" type="curve" smooth="yes"/>
      <point x="1165" y="-504"/>
      <point x="1271" y="-622"/>
      <point x="1271" y="-778" type="curve" smooth="yes"/>
      <point x="1271" y="-938"/>
      <point x="1186" y="-1064"/>
      <point x="886" y="-1064" type="curve" smooth="yes"/>
      <point x="600" y="-1064"/>
      <point x="353" y="-864"/>
      <point x="353" y="-496" type="curve" smooth="yes"/>
      <point x="353" y="1314" type="line"/>
      <point x="361" y="1314" type="line"/>
      <point x="361" y="-496" type="line" smooth="yes"/>
      <point x="361" y="-856"/>
      <point x="612" y="-1098"/>
      <point x="976" y="-1048" type="curve"/>
      <point x="976" y="-1048" type="line"/>
      <point x="878" y="-1016"/>
      <point x="783" y="-918"/>
      <point x="783" y="-762" type="curve" smooth="yes"/>
      <point x="783" y="-626"/>
      <point x="893" y="-504"/>
    </contour>
    <component base="u"/>
  </outline>
</glyph>
<glyph name="cedilla" format="2">
  <advance width="550"/>
  <unicode hex="00B8"/>
  <outline>
    <contour>
      <point x="309" y="-140" type="curve" smooth="yes"/>
      <point x="309" y="-87"/>
      <point x="267" y="-79"/>
      <point x="217" y="-79" type="curve"/>
      <point x="307" y="41" type="line"/>
      <point x="310" y="41" type="line"/>
      <point x="250" y="-39" type="line"/>
      <point x="347" y="-42"/>
      <point x="420" y="-64"/>
      <point x="420" y="-120" type="curve" smooth="yes"/>
      <point x="420" y="-170"/>
      <point x="372" y="-211"/>
      <point x="221" y="-211" type="curve"/>
      <point x="221" y="-209" type="line"/>
      <point x="280" y="-209"/>
      <point x="309" y="-179"/>
    </contour>
  </outline>
</glyph>
<glyph name="AE" format="2">
  <advance width="1045"/>
  <unicode hex="00C6"/>
  <outline>
    <contour>
      <point x="525" y="750" type="line"/>
      <point x="528" y="750" type="line"/>
      <point x="110" y="0" type="line"/>
      <point x="108" y="0" type="line"/>
    </contour>
    <contour>
      <point x="15" y="2" type="line"/>
      <point x="235" y="2" type="line"/>
      <point x="235" y="0" type="line"/>
      <point x="15" y="0" type="line"/>
    </contour>
    <contour>
      <point x="246" y="246" type="line"/>
      <point x="535" y="246" type="line"/>
      <point x="535" y="244" type="line"/>
      <point x="246" y="244" type="line"/>
    </contour>
    <contour>
      <point x="525" y="750" type="line"/>
      <point x="680" y="750" type="line"/>
      <point x="680" y="0" type="line"/>
      <point x="525" y="0" type="line"/>
    </contour>
    <contour>
      <point x="525" y="750" type="line"/>
      <point x="1005" y="750" type="line"/>
      <point x="1005" y="545" type="line"/>
      <point x="1003" y="545" type="line"/>
      <point x="988" y="652"/>
      <point x="912" y="748"/>
      <point x="800" y="748" type="curve" smooth="yes"/>
      <point x="525" y="748" type="line"/>
    </contour>
    <contour>
      <point x="1015" y="0" type="line"/>
      <point x="435" y="0" type="line"/>
      <point x="435" y="2" type="line"/>
      <point x="790" y="2" type="line" smooth="yes"/>
      <point x="922" y="2"/>
      <point x="998" y="98"/>
      <point x="1013" y="225" type="curve"/>
      <point x="1015" y="225" type="line"/>
    </contour>
    <contour>
      <point x="848" y="263" type="line"/>
      <point x="833" y="330"/>
      <point x="772" y="387"/>
      <point x="715" y="387" type="curve" smooth="yes"/>
      <point x="655" y="387" type="line"/>
      <point x="655" y="389" type="line"/>
      <point x="715" y="389" type="line" smooth="yes"/>
      <point x="772" y="389"/>
      <point x="833" y="441"/>
      <point x="848" y="508" type="curve"/>
      <point x="850" y="508" type="line"/>
      <point x="850" y="263" type="line"/>
    </contour>
  </outline>
</glyph>
<glyph name="germandbls" format="2">
  <advance width="6168"/>
  <unicode hex="00DF"/>
  <outline>
    <contour>
      <point x="3224" y="3232" type="curve"/>
      <point x="3224" y="3248" type="line"/>
      <point x="4096" y="3248"/>
      <point x="4320" y="4056"/>
      <point x="4320" y="4568" type="curve" smooth="yes"/>
      <point x="4320" y="5144"/>
      <point x="4096" y="6064"/>
      <point x="3304" y="6064" type="curve" smooth="yes"/>
      <point x="2312" y="6064"/>
      <point x="2040" y="4984"/>
      <point x="2040" y="3848" type="curve" smooth="yes"/>
      <point x="2040" y="0" type="line"/>
      <point x="840" y="0" type="line"/>
      <point x="840" y="3928" type="line" smooth="yes"/>
      <point x="840" y="5392"/>
      <point x="2040" y="6080"/>
      <point x="3344" y="6080" type="curve" smooth="yes"/>
      <point x="4488" y="6080"/>
      <point x="5608" y="5512"/>
      <point x="5608" y="4648" type="curve" smooth="yes"/>
      <point x="5608" y="3768"/>
      <point x="4832" y="3232"/>
    </contour>
    <contour>
      <point x="120" y="16" type="line"/>
      <point x="2760" y="16" type="line"/>
      <point x="2760" y="0" type="line"/>
      <point x="120" y="0" type="line"/>
    </contour>
    <contour>
      <point x="5848" y="1400" type="curve" smooth="yes"/>
      <point x="5848" y="440"/>
      <point x="4936" y="-80"/>
      <point x="3968" y="-80" type="curve" smooth="yes"/>
      <point x="3240" y="-80"/>
      <point x="2704" y="432"/>
      <point x="2704" y="1248" type="curve" smooth="yes"/>
      <point x="2704" y="1696"/>
      <point x="3040" y="1928"/>
      <point x="3400" y="1928" type="curve" smooth="yes"/>
      <point x="3720" y="1928"/>
      <point x="4032" y="1728"/>
      <point x="4032" y="1320" type="curve" smooth="yes"/>
      <point x="4032" y="944"/>
      <point x="3688" y="720"/>
      <point x="3376" y="720" type="curve" smooth="yes"/>
      <point x="3048" y="720"/>
      <point x="2776" y="936"/>
      <point x="2720" y="1216" type="curve"/>
      <point x="2736" y="432"/>
      <point x="3272" y="-48"/>
      <point x="3848" y="-48" type="curve" smooth="yes"/>
      <point x="4440" y="-48"/>
      <point x="4560" y="768"/>
      <point x="4560" y="1280" type="curve" smooth="yes"/>
      <point x="4560" y="2032"/>
      <point x="4416" y="3232"/>
      <point x="3224" y="3232" type="curve"/>
      <point x="3224" y="3248" type="line"/>
      <point x="5152" y="3248"/>
      <point x="5848" y="2440"/>
    </contour>
  </outline>
</glyph>
<glyph name="ae" format="2">
  <advance width="3411"/>
  <unicode hex="00E6"/>
  <outline>
    <contour>
      <point x="286" y="1479" type="curve" smooth="yes"/>
      <point x="286" y="1743"/>
      <point x="644" y="1916"/>
      <point x="1057" y="1916" type="curve" smooth="yes"/>
      <point x="1589" y="1916"/>
      <point x="1807" y="1623"/>
      <point x="1807" y="1250" type="curve"/>
      <point x="1786" y="742" type="line"/>
      <point x="1786" y="234"/>
      <point x="1377" y="-40"/>
      <point x="902" y="-40" type="curve" smooth="yes"/>
      <point x="455" y="-40"/>
      <point x="144" y="117"/>
      <point x="144" y="462" type="curve" smooth="yes"/>
      <point x="144" y="806"/>
      <point x="458" y="1051"/>
      <point x="1040" y="1051" type="curve" smooth="yes"/>
      <point x="1671" y="1051" type="line"/>
      <point x="1671" y="1042" type="line"/>
      <point x="1184" y="1042" type="line" smooth="yes"/>
      <point x="934" y="1042"/>
      <point x="766" y="788"/>
      <point x="766" y="493" type="curve" smooth="yes"/>
      <point x="766" y="219"/>
      <point x="855" y="-24"/>
      <point x="1019" y="-24" type="curve" smooth="yes"/>
      <point x="1191" y="-24"/>
      <point x="1335" y="266"/>
      <point x="1335" y="639" type="curve" smooth="yes"/>
      <point x="1335" y="1250" type="line" smooth="yes"/>
      <point x="1335" y="1524"/>
      <point x="1276" y="1898"/>
      <point x="948" y="1898" type="curve" smooth="yes"/>
      <point x="735" y="1898"/>
      <point x="497" y="1806"/>
      <point x="395" y="1700" type="curve"/>
      <point x="694" y="1847"/>
      <point x="946" y="1680"/>
      <point x="946" y="1487" type="curve" smooth="yes"/>
      <point x="946" y="1303"/>
      <point x="766" y="1192"/>
      <point x="602" y="1192" type="curve" smooth="yes"/>
      <point x="418" y="1192"/>
      <point x="286" y="1311"/>
    </contour>
    <contour>
      <point x="2697" y="1053" type="line"/>
      <point x="2693" y="1434"/>
      <point x="2668" y="1916"/>
      <point x="2406" y="1916" type="curve" smooth="yes"/>
      <point x="2123" y="1916"/>
      <point x="2048" y="1449"/>
      <point x="2048" y="983" type="curve" smooth="yes"/>
      <point x="2048" y="517"/>
      <point x="2130" y="-14"/>
      <point x="2515" y="-14" type="curve" smooth="yes"/>
      <point x="2917" y="-14"/>
      <point x="3197" y="238"/>
      <point x="3301" y="586" type="curve"/>
      <point x="3309" y="586" type="line"/>
      <point x="3203" y="230"/>
      <point x="2914" y="-40"/>
      <point x="2419" y="-40" type="curve" smooth="yes"/>
      <point x="1903" y="-40"/>
      <point x="1536" y="307"/>
      <point x="1536" y="942" type="curve" smooth="yes"/>
      <point x="1536" y="1577"/>
      <point x="1890" y="1926"/>
      <point x="2406" y="1926" type="curve" smooth="yes"/>
      <point x="3016" y="1926"/>
      <point x="3305" y="1490"/>
      <point x="3305" y="1044" type="curve"/>
      <point x="1831" y="1044" type="line"/>
      <point x="1831" y="1053" type="line"/>
    </contour>
  </outline>
</glyph>
<glyph name="eth" format="2">
  <advance width="2497"/>
  <unicode hex="00F0"/>
  <outline>
    <contour>
      <point x="532" y="2580" type="line"/>
      <point x="2355" y="2580" type="line"/>
      <point x="2355" y="2572" type="line"/>
      <point x="532" y="2572" type="line"/>
    </contour>
    <contour>
      <point x="2293" y="1270" type="curve" smooth="yes"/>
      <point x="2293" y="410"/>
      <point x="1851" y="-40"/>
      <point x="1192" y="-40" type="curve" smooth="yes"/>
      <point x="533" y="-40"/>
      <point x="122" y="410"/>
      <point x="122" y="1024" type="curve" smooth="yes"/>
      <point x="122" y="1720"/>
      <point x="626" y="2018"/>
      <point x="1081" y="2018" type="curve" smooth="yes"/>
      <point x="1515" y="2018"/>
      <point x="1626" y="1646"/>
      <point x="1626" y="1146" type="curve"/>
      <point x="1618" y="1146" type="line"/>
      <point x="1618" y="1684"/>
      <point x="1471" y="1974"/>
      <point x="1192" y="1974" type="curve" smooth="yes"/>
      <point x="930" y="1974"/>
      <point x="798" y="1675"/>
      <point x="798" y="1024" type="curve" smooth="yes"/>
      <point x="798" y="455"/>
      <point x="857" y="-32"/>
      <point x="1180" y="-32" type="curve" smooth="yes"/>
      <point x="1503" y="-32"/>
      <point x="1618" y="495"/>
      <point x="1618" y="1146" type="curve"/>
      <point x="1620" y="1331" type="line"/>
      <point x="1620" y="2097"/>
      <point x="1163" y="3104"/>
      <point x="430" y="3104" type="curve"/>
      <point x="430" y="3112" type="line"/>
      <point x="1485" y="3112"/>
      <point x="2293" y="2303"/>
    </contour>
  </outline>
</glyph>
<glyph name="thorn" format="2">
  <advance width="2551"/>
  <unicode hex="00FE"/>
  <outline>
    <contour>
      <point x="913" y="942" type="curve" smooth="yes"/>
      <point x="913" y="1564"/>
      <point x="1141" y="1922"/>
      <point x="1561" y="1922" type="curve" smooth="yes"/>
      <point x="2007" y="1922"/>
      <point x="2429" y="1556"/>
      <point x="2429" y="942" type="curve" smooth="yes"/>
      <point x="2429" y="328"/>
      <point x="2007" y="-40"/>
      <point x="1561" y="-40" type="curve" smooth="yes"/>
      <point x="1143" y="-40"/>
      <point x="913" y="320"/>
    </contour>
    <contour>
      <point x="921" y="942" type="curve" smooth="yes"/>
      <point x="921" y="312"/>
      <point x="1176" y="6"/>
      <point x="1438" y="6" type="curve" smooth="yes"/>
      <point x="1680" y="6"/>
      <point x="1774" y="353"/>
      <point x="1774" y="942" type="curve" smooth="yes"/>
      <point x="1774" y="1531"/>
      <point x="1680" y="1874"/>
      <point x="1438" y="1874" type="curve" smooth="yes"/>
      <point x="1176" y="1874"/>
      <point x="921" y="1572"/>
    </contour>
    <contour>
      <point x="62" y="-1016" type="line"/>
      <point x="1209" y="-1016" type="line"/>
      <point x="1209" y="-1024" type="line"/>
      <point x="62" y="-1024" type="line"/>
    </contour>
    <contour>
      <point x="348" y="3064" type="line"/>
      <point x="62" y="3064" type="line"/>
      <point x="62" y="3072" type="line"/>
      <point x="921" y="3072" type="line"/>
      <point x="921" y="-1024" type="line"/>
      <point x="348" y="-1024" type="line"/>
    </contour>
  </outline>
</glyph>
<glyph name="kgreenlandic" format="2">
  <advance width="641"/>
  <unicode hex="0138"/>
  <outline>
    <contour>
      <point x="593" y="0" type="line"/>
      <point x="420" y="0" type="line"/>
      <point x="222" y="266" type="line"/>
      <point x="494" y="460" type="line"/>
      <point x="497" y="460" type="line"/>
      <point x="329" y="338" type="line"/>
    </contour>
    <contour>
      <point x="349" y="2" type="line"/>
      <point x="631" y="2" type="line"/>
      <point x="631" y="0" type="line"/>
      <point x="349" y="0" type="line"/>
    </contour>
    <contour>
      <point x="582" y="458" type="line"/>
      <point x="359" y="458" type="line"/>
      <point x="359" y="460" type="line"/>
      <point x="582" y="460" type="line"/>
    </contour>
    <contour>
      <point x="20" y="2" type="line"/>
      <point x="305" y="2" type="line"/>
      <point x="305" y="0" type="line"/>
      <point x="20" y="0" type="line"/>
    </contour>
    <contour>
      <point x="110" y="458" type="line"/>
      <point x="20" y="458" type="line"/>
      <point x="20" y="460" type="line"/>
      <point x="250" y="460" type="line"/>
      <point x="250" y="0" type="line"/>
      <point x="110" y="0" type="line"/>
    </contour>
  </outline>
</glyph>
<glyph name="Lslash" format="2">
  <advance width="2514"/>
  <unicode hex="0141"/>
  <outline>
    <contour>
      <point x="58.5" y="1474" type="line"/>
      <point x="1675.5" y="2376" type="line"/>
      <point x="1675.5" y="2366" type="line"/>
      <point x="58.5" y="1464" type="line"/>
    </contour>
    <component base="L"/>
  </outline>
</glyph>
<glyph name="lslash" format="2">
  <advance width="2720"/>
  <unicode hex="0142"/>
  <outline>
    <contour>
      <point x="80" y="3040" type="line"/>
      <point x="2760" y="4640" type="line"/>
      <point x="2760" y="4624" type="line"/>
      <point x="80" y="3024" type="line"/>
    </contour>
    <component base="l"/>
  </outline>
</glyph>
<glyph name="OE" format="2">
  <advance width="7936"/>
  <unicode hex="0152"/>
  <outline>
    <contour>
      <point x="3216" y="5984" type="move"/>
    </contour>
    <contour>
      <point x="1720" y="3000" type="curve" smooth="yes"/>
      <point x="1720" y="1424"/>
      <point x="2104" y="16"/>
      <point x="3216" y="16" type="curve"/>
      <point x="3056" y="0" type="line"/>
      <point x="1432" y="0"/>
      <point x="320" y="1216"/>
      <point x="320" y="3000" type="curve" smooth="yes"/>
      <point x="320" y="4784"/>
      <point x="1432" y="6000"/>
      <point x="3056" y="6000" type="curve"/>
      <point x="3216" y="5984" type="line"/>
      <point x="2104" y="5984"/>
      <point x="1720" y="4576"/>
    </contour>
    <component base="E" xOffset="2920"/>
  </outline>
</glyph>
<glyph name="uni0237" format="2">
  <advance width="1338"/>
  <unicode hex="0237"/>
  <outline>
    <contour>
      <point x="1024" y="1884" type="line"/>
      <point x="1024" y="-50" type="line" smooth="yes"/>
      <point x="1024" y="-586"/>
      <point x="708" y="-1064"/>
      <point x="135" y="-1064" type="curve" smooth="yes"/>
      <point x="-238" y="-1064"/>
      <point x="-492" y="-846"/>
      <point x="-492" y="-575" type="curve" smooth="yes"/>
      <point x="-492" y="-368"/>
      <point x="-334" y="-241"/>
      <point x="-156" y="-241" type="curve" smooth="yes"/>
      <point x="8" y="-241"/>
      <point x="176" y="-340"/>
      <point x="176" y="-545" type="curve" smooth="yes"/>
      <point x="176" y="-740"/>
      <point x="37" y="-857"/>
      <point x="-174" y="-857" type="curve" smooth="yes"/>
      <point x="-350" y="-857"/>
      <point x="-461" y="-740"/>
      <point x="-481" y="-617" type="curve"/>
      <point x="-473" y="-838"/>
      <point x="-235" y="-1048"/>
      <point x="84" y="-1048" type="curve" smooth="yes"/>
      <point x="514" y="-1048"/>
      <point x="441" y="-432"/>
      <point x="441" y="88" type="curve" smooth="yes"/>
      <point x="451" y="1876" type="line"/>
      <point x="82" y="1876" type="line"/>
      <point x="82" y="1884" type="line"/>
    </contour>
  </outline>
</glyph>
<glyph name="caron" format="2">
  <advance width="425"/>
  <unicode hex="02C7"/>
  <outline>
    <contour>
      <point x="212" y="715" type="line"/>
      <point x="374" y="781" type="line"/>
      <point x="375" y="780" type="line"/>
      <point x="255" y="645" type="line"/>
      <point x="170" y="645" type="line"/>
      <point x="50" y="780" type="line"/>
      <point x="52" y="781" type="line"/>
    </contour>
  </outline>
</glyph>
<glyph name="ring" format="2">
  <advance width="1310"/>
  <unicode hex="02DA"/>
  <outline>
    <contour>
      <point x="245" y="2786" type="curve" smooth="yes"/>
      <point x="245" y="2994"/>
      <point x="407" y="3154"/>
      <point x="656" y="3154" type="curve" smooth="yes"/>
      <point x="905" y="3154"/>
      <point x="1065" y="2994"/>
      <point x="1065" y="2786" type="curve" smooth="yes"/>
      <point x="1065" y="2578"/>
      <point x="905" y="2416"/>
      <point x="656" y="2416" type="curve" smooth="yes"/>
      <point x="407" y="2416"/>
      <point x="245" y="2578"/>
    </contour>
    <contour>
      <point x="491" y="2786" type="curve" smooth="yes"/>
      <point x="491" y="2573"/>
      <point x="525" y="2424"/>
      <point x="656" y="2424" type="curve" smooth="yes"/>
      <point x="787" y="2424"/>
      <point x="819" y="2573"/>
      <point x="819" y="2786" type="curve" smooth="yes"/>
      <point x="819" y="2999"/>
      <point x="787" y="3146"/>
      <point x="656" y="3146" type="curve" smooth="yes"/>
      <point x="525" y="3146"/>
      <point x="491" y="2999"/>
    </contour>
  </outline>
</glyph>
<glyph name="ogonek" format="2">
  <advance width="4400"/>
  <unicode hex="02DB"/>
  <outline>
    <contour>
      <point x="3200" y="-984" type="line"/>
      <point x="3080" y="-1208"/>
      <point x="2896" y="-1568"/>
      <point x="2208" y="-1568" type="curve" smooth="yes"/>
      <point x="1680" y="-1568"/>
      <point x="1216" y="-1360"/>
      <point x="1216" y="-880" type="curve" smooth="yes"/>
      <point x="1216" y="-240"/>
      <point x="2000" y="168"/>
      <point x="2608" y="344" type="curve"/>
      <point x="2624" y="328" type="line"/>
      <point x="2456" y="232"/>
      <point x="2288" y="-136"/>
      <point x="2288" y="-680" type="curve" smooth="yes"/>
      <point x="2288" y="-1136"/>
      <point x="2472" y="-1392"/>
      <point x="2704" y="-1392" type="curve" smooth="yes"/>
      <point x="2936" y="-1392"/>
      <point x="3064" y="-1216"/>
      <point x="3200" y="-976" type="curve"/>
    </contour>
  </outline>
</glyph>
<glyph name="tilde" format="2">
  <advance width="1834"/>
  <unicode hex="02DC"/>
  <outline>
    <contour>
      <point x="483" y="2679" type="curve" smooth="yes"/>
      <point x="327" y="2679"/>
      <point x="212" y="2588"/>
      <point x="212" y="2437" type="curve"/>
      <point x="204" y="2437" type="line"/>
      <point x="204" y="2785"/>
      <point x="348" y="3039"/>
      <point x="610" y="3039" type="curve" smooth="yes"/>
      <point x="937" y="3039"/>
      <point x="1081" y="2716"/>
      <point x="1352" y="2716" type="curve" smooth="yes"/>
      <point x="1528" y="2716"/>
      <point x="1622" y="2806"/>
      <point x="1622" y="2957" type="curve"/>
      <point x="1630" y="2957" type="line"/>
      <point x="1630" y="2567"/>
      <point x="1569" y="2355"/>
      <point x="1266" y="2355" type="curve" smooth="yes"/>
      <point x="951" y="2355"/>
      <point x="782" y="2679"/>
    </contour>
  </outline>
</glyph>
<glyph name="pi" format="2">
  <advance width="631"/>
  <unicode hex="03C0"/>
  <outline>
    <contour>
      <point x="596" y="103" type="line"/>
      <point x="573" y="33"/>
      <point x="536" y="-10"/>
      <point x="463" y="-10" type="curve" smooth="yes"/>
      <point x="396" y="-10"/>
      <point x="346" y="19"/>
      <point x="346" y="83" type="curve" smooth="yes"/>
      <point x="346" y="420" type="line"/>
      <point x="486" y="420" type="line"/>
      <point x="486" y="76" type="line" smooth="yes"/>
      <point x="486" y="56"/>
      <point x="496" y="36"/>
      <point x="525" y="36" type="curve" smooth="yes"/>
      <point x="551" y="36"/>
      <point x="574" y="54"/>
      <point x="594" y="104" type="curve"/>
    </contour>
    <contour>
      <point x="124" y="-10" type="curve" smooth="yes"/>
      <point x="73" y="-10"/>
      <point x="40" y="18"/>
      <point x="40" y="58" type="curve" smooth="yes"/>
      <point x="40" y="151"/>
      <point x="197" y="107"/>
      <point x="197" y="279" type="curve" smooth="yes"/>
      <point x="197" y="450" type="line"/>
      <point x="253" y="450" type="line"/>
      <point x="253" y="243" type="line" smooth="yes"/>
      <point x="253" y="85"/>
      <point x="207" y="-10"/>
    </contour>
    <contour>
      <point x="576" y="460" type="line"/>
      <point x="576" y="320" type="line"/>
      <point x="43" y="320" type="line"/>
      <point x="43" y="245" type="line"/>
      <point x="41" y="245" type="line"/>
      <point x="41" y="460" type="line"/>
    </contour>
  </outline>
</glyph>
<glyph name="uni1E9E" format="2">
  <advance width="891"/>
  <unicode hex="1E9E"/>
  <outline>
    <contour>
      <point x="15" y="2" type="line"/>
      <point x="355" y="2" type="line"/>
      <point x="355" y="0" type="line"/>
      <point x="15" y="0" type="line"/>
    </contour>
    <contour>
      <point x="614" y="400" type="line"/>
      <point x="579" y="406"/>
      <point x="493" y="414"/>
      <point x="458" y="415" type="curve"/>
      <point x="706" y="722" type="line"/>
      <point x="676" y="736"/>
      <point x="610" y="758"/>
      <point x="528" y="758" type="curve" smooth="yes"/>
      <point x="334" y="758"/>
      <point x="265" y="618"/>
      <point x="265" y="431" type="curve" smooth="yes"/>
      <point x="265" y="0" type="line"/>
      <point x="105" y="0" type="line"/>
      <point x="105" y="441" type="line" smooth="yes"/>
      <point x="105" y="654"/>
      <point x="290" y="760"/>
      <point x="528" y="760" type="curve" smooth="yes"/>
      <point x="681" y="760"/>
      <point x="786" y="694"/>
      <point x="821" y="656" type="curve"/>
    </contour>
    <contour>
      <point x="348" y="148" type="curve"/>
      <point x="357" y="66"/>
      <point x="436" y="-3"/>
      <point x="546" y="-3" type="curve" smooth="yes"/>
      <point x="652" y="-3"/>
      <point x="688" y="91"/>
      <point x="688" y="200" type="curve" smooth="yes"/>
      <point x="688" y="289"/>
      <point x="652" y="413"/>
      <point x="458" y="413" type="curve"/>
      <point x="458" y="415" type="line"/>
      <point x="764" y="415"/>
      <point x="851" y="322"/>
      <point x="851" y="202" type="curve" smooth="yes"/>
      <point x="851" y="67"/>
      <point x="727" y="-10"/>
      <point x="576" y="-10" type="curve" smooth="yes"/>
      <point x="419" y="-10"/>
      <point x="345" y="79"/>
      <point x="345" y="161" type="curve" smooth="yes"/>
      <point x="345" y="217"/>
      <point x="382" y="254"/>
      <point x="432" y="254" type="curve" smooth="yes"/>
      <point x="477" y="254"/>
      <point x="512" y="221"/>
      <point x="512" y="170" type="curve" smooth="yes"/>
      <point x="512" y="123"/>
      <point x="471" y="90"/>
      <point x="427" y="90" type="curve" smooth="yes"/>
      <point x="387" y="90"/>
      <point x="358" y="120"/>
    </contour>
  </outline>
</glyph>
<glyph name="perthousand" format="2">
  <advance width="6184"/>
  <unicode hex="2030"/>
  <outline>
    <contour>
      <point x="4874" y="860" type="curve" smooth="yes"/>
      <point x="4874" y="299"/>
      <point x="4939" y="-32"/>
      <point x="5140" y="-32" type="curve" smooth="yes"/>
      <point x="5341" y="-32"/>
      <point x="5407" y="299"/>
      <point x="5407" y="860" type="curve" smooth="yes"/>
      <point x="5407" y="1421"/>
      <point x="5341" y="1754"/>
      <point x="5140" y="1754" type="curve" smooth="yes"/>
      <point x="4939" y="1754"/>
      <point x="4874" y="1421"/>
    </contour>
    <contour>
      <point x="4240" y="860" type="curve" smooth="yes"/>
      <point x="4240" y="1446"/>
      <point x="4678" y="1762"/>
      <point x="5140" y="1762" type="curve" smooth="yes"/>
      <point x="5602" y="1762"/>
      <point x="6042" y="1446"/>
      <point x="6042" y="860" type="curve" smooth="yes"/>
      <point x="6042" y="274"/>
      <point x="5520" y="-40"/>
      <point x="5140" y="-40" type="curve" smooth="yes"/>
      <point x="4678" y="-40"/>
      <point x="4240" y="274"/>
    </contour>
    <contour>
      <point x="2867" y="860" type="curve" smooth="yes"/>
      <point x="2867" y="299"/>
      <point x="2933" y="-32"/>
      <point x="3134" y="-32" type="curve" smooth="yes"/>
      <point x="3335" y="-32"/>
      <point x="3400" y="299"/>
      <point x="3400" y="860" type="curve" smooth="yes"/>
      <point x="3400" y="1421"/>
      <point x="3335" y="1754"/>
      <point x="3134" y="1754" type="curve" smooth="yes"/>
      <point x="2933" y="1754"/>
      <point x="2867" y="1421"/>
    </contour>
    <contour>
      <point x="2232" y="860" type="curve" smooth="yes"/>
      <point x="2232" y="1446"/>
      <point x="2672" y="1762"/>
      <point x="3134" y="1762" type="curve" smooth="yes"/>
      <point x="3596" y="1762"/>
      <point x="4034" y="1446"/>
      <point x="4034" y="860" type="curve" smooth="yes"/>
      <point x="4034" y="274"/>
      <point x="3514" y="-40"/>
      <point x="3134" y="-40" type="curve" smooth="yes"/>
      <point x="2672" y="-40"/>
      <point x="2232" y="274"/>
    </contour>
    <contour>
      <point x="3165" y="3072" type="line"/>
      <point x="3175" y="3072" type="line"/>
      <point x="1013" y="0" type="line"/>
      <point x="1003" y="0" type="line"/>
    </contour>
    <contour>
      <point x="778" y="2212" type="curve" smooth="yes"/>
      <point x="778" y="1651"/>
      <point x="843" y="1318"/>
      <point x="1044" y="1318" type="curve" smooth="yes"/>
      <point x="1245" y="1318"/>
      <point x="1311" y="1651"/>
      <point x="1311" y="2212" type="curve" smooth="yes"/>
      <point x="1311" y="2773"/>
      <point x="1245" y="3104"/>
      <point x="1044" y="3104" type="curve" smooth="yes"/>
      <point x="843" y="3104"/>
      <point x="778" y="2773"/>
    </contour>
    <contour>
      <point x="144" y="2212" type="curve" smooth="yes"/>
      <point x="144" y="2798"/>
      <point x="582" y="3112"/>
      <point x="1044" y="3112" type="curve" smooth="yes"/>
      <point x="1506" y="3112"/>
      <point x="1946" y="2798"/>
      <point x="1946" y="2212" type="curve" smooth="yes"/>
      <point x="1946" y="1626"/>
      <point x="1424" y="1310"/>
      <point x="1044" y="1310" type="curve" smooth="yes"/>
      <point x="582" y="1310"/>
      <point x="144" y="1626"/>
    </contour>
  </outline>
</glyph>
<glyph name="uni2031" format="2">
  <advance width="2005"/>
  <unicode hex="2031"/>
  <outline>
    <contour>
      <point x="1685" y="210" type="curve" smooth="yes"/>
      <point x="1685" y="73"/>
      <point x="1701" y="-8"/>
      <point x="1750" y="-8" type="curve" smooth="yes"/>
      <point x="1799" y="-8"/>
      <point x="1815" y="73"/>
      <point x="1815" y="210" type="curve" smooth="yes"/>
      <point x="1815" y="347"/>
      <point x="1799" y="428"/>
      <point x="1750" y="428" type="curve" smooth="yes"/>
      <point x="1701" y="428"/>
      <point x="1685" y="347"/>
    </contour>
    <contour>
      <point x="1530" y="210" type="curve" smooth="yes"/>
      <point x="1530" y="353"/>
      <point x="1637" y="430"/>
      <point x="1750" y="430" type="curve" smooth="yes"/>
      <point x="1863" y="430"/>
      <point x="1970" y="353"/>
      <point x="1970" y="210" type="curve" smooth="yes"/>
      <point x="1970" y="67"/>
      <point x="1843" y="-10"/>
      <point x="1750" y="-10" type="curve" smooth="yes"/>
      <point x="1637" y="-10"/>
      <point x="1530" y="67"/>
    </contour>
    <contour>
      <point x="1190" y="210" type="curve" smooth="yes"/>
      <point x="1190" y="73"/>
      <point x="1206" y="-8"/>
      <point x="1255" y="-8" type="curve" smooth="yes"/>
      <point x="1304" y="-8"/>
      <point x="1320" y="73"/>
      <point x="1320" y="210" type="curve" smooth="yes"/>
      <point x="1320" y="347"/>
      <point x="1304" y="428"/>
      <point x="1255" y="428" type="curve" smooth="yes"/>
      <point x="1206" y="428"/>
      <point x="1190" y="347"/>
    </contour>
    <contour>
      <point x="1035" y="210" type="curve" smooth="yes"/>
      <point x="1035" y="353"/>
      <point x="1142" y="430"/>
      <point x="1255" y="430" type="curve" smooth="yes"/>
      <point x="1368" y="430"/>
      <point x="1475" y="353"/>
      <point x="1475" y="210" type="curve" smooth="yes"/>
      <point x="1475" y="67"/>
      <point x="1348" y="-10"/>
      <point x="1255" y="-10" type="curve" smooth="yes"/>
      <point x="1142" y="-10"/>
      <point x="1035" y="67"/>
    </contour>
    <contour>
      <point x="700" y="210" type="curve" smooth="yes"/>
      <point x="700" y="73"/>
      <point x="716" y="-8"/>
      <point x="765" y="-8" type="curve" smooth="yes"/>
      <point x="814" y="-8"/>
      <point x="830" y="73"/>
      <point x="830" y="210" type="curve" smooth="yes"/>
      <point x="830" y="347"/>
      <point x="814" y="428"/>
      <point x="765" y="428" type="curve" smooth="yes"/>
      <point x="716" y="428"/>
      <point x="700" y="347"/>
    </contour>
    <contour>
      <point x="545" y="210" type="curve" smooth="yes"/>
      <point x="545" y="353"/>
      <point x="652" y="430"/>
      <point x="765" y="430" type="curve" smooth="yes"/>
      <point x="878" y="430"/>
      <point x="985" y="353"/>
      <point x="985" y="210" type="curve" smooth="yes"/>
      <point x="985" y="67"/>
      <point x="858" y="-10"/>
      <point x="765" y="-10" type="curve" smooth="yes"/>
      <point x="652" y="-10"/>
      <point x="545" y="67"/>
    </contour>
    <contour>
      <point x="772" y="750" type="line"/>
      <point x="775" y="750" type="line"/>
      <point x="248" y="0" type="line"/>
      <point x="245" y="0" type="line"/>
    </contour>
    <contour>
      <point x="190" y="540" type="curve" smooth="yes"/>
      <point x="190" y="403"/>
      <point x="206" y="322"/>
      <point x="255" y="322" type="curve" smooth="yes"/>
      <point x="304" y="322"/>
      <point x="320" y="403"/>
      <point x="320" y="540" type="curve" smooth="yes"/>
      <point x="320" y="677"/>
      <point x="304" y="758"/>
      <point x="255" y="758" type="curve" smooth="yes"/>
      <point x="206" y="758"/>
      <point x="190" y="677"/>
    </contour>
    <contour>
      <point x="35" y="540" type="curve" smooth="yes"/>
      <point x="35" y="683"/>
      <point x="142" y="760"/>
      <point x="255" y="760" type="curve" smooth="yes"/>
      <point x="368" y="760"/>
      <point x="475" y="683"/>
      <point x="475" y="540" type="curve" smooth="yes"/>
      <point x="475" y="397"/>
      <point x="348" y="320"/>
      <point x="255" y="320" type="curve" smooth="yes"/>
      <point x="142" y="320"/>
      <point x="35" y="397"/>
    </contour>
  </outline>
</glyph>
<glyph name="uni203D" format="2">
  <advance width="660"/>
  <unicode hex="203D"/>
  <outline>
    <contour>
      <point x="406" y="519" type="curve" smooth="yes"/>
      <point x="395" y="423"/>
      <point x="323" y="313"/>
      <point x="323" y="243" type="curve"/>
      <point x="321" y="243" type="line"/>
      <point x="321" y="313"/>
      <point x="269" y="423"/>
      <point x="258" y="519" type="curve" smooth="yes"/>
      <point x="257" y="526"/>
      <point x="257" y="532"/>
      <point x="257" y="538" type="curve" smooth="yes"/>
      <point x="257" y="566"/>
      <point x="275" y="613"/>
      <point x="332" y="613" type="curve" smooth="yes"/>
      <point x="389" y="613"/>
      <point x="407" y="566"/>
      <point x="407" y="538" type="curve" smooth="yes"/>
      <point x="407" y="532"/>
      <point x="407" y="526"/>
    </contour>
    <contour>
      <point x="65" y="556" type="curve" smooth="yes"/>
      <point x="65" y="648"/>
      <point x="164" y="760"/>
      <point x="341" y="760" type="curve" smooth="yes"/>
      <point x="492" y="760"/>
      <point x="620" y="685"/>
      <point x="620" y="550" type="curve" smooth="yes"/>
      <point x="620" y="420"/>
      <point x="468" y="335"/>
      <point x="337" y="335" type="curve"/>
      <point x="337" y="337" type="line"/>
      <point x="419" y="339"/>
      <point x="489" y="452"/>
      <point x="489" y="560" type="curve" smooth="yes"/>
      <point x="489" y="654"/>
      <point x="427" y="752"/>
      <point x="318" y="752" type="curve" smooth="yes"/>
      <point x="174" y="752"/>
      <point x="78" y="652"/>
      <point x="71" y="574" type="curve"/>
      <point x="78" y="599"/>
      <point x="106" y="625"/>
      <point x="147" y="625" type="curve" smooth="yes"/>
      <point x="191" y="625"/>
      <point x="219" y="585"/>
      <point x="219" y="550" type="curve" smooth="yes"/>
      <point x="219" y="495"/>
      <point x="177" y="469"/>
      <point x="142" y="469" type="curve" smooth="yes"/>
      <point x="102" y="469"/>
      <point x="65" y="500"/>
    </contour>
    <component base="period" xOffset="189"/>
  </outline>
</glyph>
<glyph name="uni2116" format="2">
  <advance width="9168"/>
  <unicode hex="2116"/>
  <outline>
    <contour>
      <point x="6920" y="4560" type="curve" smooth="yes"/>
      <point x="6920" y="3648"/>
      <point x="7080" y="3056"/>
      <point x="7472" y="3056" type="curve" smooth="yes"/>
      <point x="7864" y="3056"/>
      <point x="8024" y="3648"/>
      <point x="8024" y="4560" type="curve" smooth="yes"/>
      <point x="8024" y="5472"/>
      <point x="7864" y="6064"/>
      <point x="7472" y="6064" type="curve" smooth="yes"/>
      <point x="7080" y="6064"/>
      <point x="6920" y="5472"/>
    </contour>
    <contour>
      <point x="6000" y="4560" type="curve" smooth="yes"/>
      <point x="6000" y="5560"/>
      <point x="6624" y="6080"/>
      <point x="7472" y="6080" type="curve" smooth="yes"/>
      <point x="8320" y="6080"/>
      <point x="8944" y="5560"/>
      <point x="8944" y="4560" type="curve" smooth="yes"/>
      <point x="8944" y="3560"/>
      <point x="8320" y="3040"/>
      <point x="7472" y="3040" type="curve" smooth="yes"/>
      <point x="6624" y="3040"/>
      <point x="6000" y="3560"/>
    </contour>
    <component base="hyphen" xOffset="6032" yOffset="320"/>
    <component base="N"/>
  </outline>
</glyph>
<glyph name="uniFB00" format="2">
  <advance width="2866"/>
  <unicode hex="FB00"/>
  <outline>
    <contour>
      <point x="51" y="8" type="line"/>
      <point x="2735" y="8" type="line"/>
      <point x="2735" y="0" type="line"/>
      <point x="51" y="0" type="line"/>
    </contour>
    <contour>
      <point x="51" y="1884" type="line"/>
      <point x="2816" y="1884" type="line"/>
      <point x="2816" y="1876" type="line"/>
      <point x="51" y="1876" type="line"/>
    </contour>
    <contour>
      <point x="2058" y="2502" type="curve"/>
      <point x="2023" y="2692"/>
      <point x="1772" y="2898"/>
      <point x="1493" y="2898" type="curve" smooth="yes"/>
      <point x="1165" y="2898"/>
      <point x="972" y="2528"/>
      <point x="972" y="2008" type="curve" smooth="yes"/>
      <point x="972" y="0" type="line"/>
      <point x="420" y="0" type="line"/>
      <point x="420" y="1892" type="line" smooth="yes"/>
      <point x="420" y="2469"/>
      <point x="858" y="2908"/>
      <point x="1472" y="2908" type="curve" smooth="yes"/>
      <point x="1824" y="2908"/>
      <point x="2079" y="2654"/>
      <point x="2079" y="2421" type="curve" smooth="yes"/>
      <point x="2079" y="2212"/>
      <point x="1947" y="2085"/>
      <point x="1763" y="2085" type="curve" smooth="yes"/>
      <point x="1599" y="2085"/>
      <point x="1431" y="2192"/>
      <point x="1431" y="2393" type="curve" smooth="yes"/>
      <point x="1431" y="2594"/>
      <point x="1569" y="2705"/>
      <point x="1741" y="2705" type="curve" smooth="yes"/>
      <point x="1901" y="2705"/>
      <point x="2042" y="2557"/>
    </contour>
    <contour>
      <point x="3240" y="2722" type="curve"/>
      <point x="3212" y="2900"/>
      <point x="3027" y="3102"/>
      <point x="2711" y="3102" type="curve" smooth="yes"/>
      <point x="2383" y="3102"/>
      <point x="2253" y="2732"/>
      <point x="2253" y="2212" type="curve" smooth="yes"/>
      <point x="2253" y="0" type="line"/>
      <point x="1700" y="0" type="line"/>
      <point x="1700" y="2098" type="line" smooth="yes"/>
      <point x="1700" y="2675"/>
      <point x="2097" y="3112"/>
      <point x="2691" y="3112" type="curve" smooth="yes"/>
      <point x="3043" y="3112"/>
      <point x="3256" y="2879"/>
      <point x="3256" y="2646" type="curve" smooth="yes"/>
      <point x="3256" y="2437"/>
      <point x="3125" y="2310"/>
      <point x="2941" y="2310" type="curve" smooth="yes"/>
      <point x="2777" y="2310"/>
      <point x="2609" y="2416"/>
      <point x="2609" y="2617" type="curve" smooth="yes"/>
      <point x="2609" y="2818"/>
      <point x="2764" y="2931"/>
      <point x="2936" y="2931" type="curve" smooth="yes"/>
      <point x="3073" y="2931"/>
      <point x="3201" y="2838"/>
    </contour>
  </outline>
</glyph>
<glyph name="uniFB01" format="2">
  <advance width="5016"/>
  <unicode hex="FB01"/>
  <outline>
    <contour>
      <point x="816" y="4096" type="line" smooth="yes"/>
      <point x="816" y="5264"/>
      <point x="1640" y="6080"/>
      <point x="3040" y="6080" type="curve" smooth="yes"/>
      <point x="3888" y="6080"/>
      <point x="4336" y="5624"/>
      <point x="4336" y="5128" type="curve" smooth="yes"/>
      <point x="4336" y="4720"/>
      <point x="4088" y="4472"/>
      <point x="3728" y="4472" type="curve" smooth="yes"/>
      <point x="3400" y="4472"/>
      <point x="3072" y="4680"/>
      <point x="3072" y="5064" type="curve" smooth="yes"/>
      <point x="3072" y="5448"/>
      <point x="3376" y="5680"/>
      <point x="3712" y="5680" type="curve" smooth="yes"/>
      <point x="4000" y="5680"/>
      <point x="4232" y="5504"/>
      <point x="4312" y="5240" type="curve"/>
      <point x="4232" y="5712"/>
      <point x="3784" y="6064"/>
      <point x="3040" y="6064" type="curve" smooth="yes"/>
      <point x="2160" y="6064"/>
      <point x="1904" y="5336"/>
      <point x="1904" y="4320" type="curve" smooth="yes"/>
      <point x="1904" y="0" type="line"/>
      <point x="816" y="0" type="line"/>
    </contour>
    <contour>
      <point x="96" y="16" type="line"/>
      <point x="4880" y="16" type="line"/>
      <point x="4880" y="0" type="line"/>
      <point x="96" y="0" type="line"/>
    </contour>
    <contour>
      <point x="3200" y="3664" type="line"/>
      <point x="96" y="3664" type="line"/>
      <point x="96" y="3680" type="line"/>
      <point x="4320" y="3680" type="line"/>
      <point x="4320" y="0" type="line"/>
      <point x="3200" y="0" type="line"/>
    </contour>
  </outline>
</glyph>
<glyph name="uniFB02" format="2">
  <advance width="672"/>
  <unicode hex="FB02"/>
  <outline>
    <contour>
      <point x="12" y="2" type="line"/>
      <point x="662" y="2" type="line"/>
      <point x="662" y="0" type="line"/>
      <point x="12" y="0" type="line"/>
    </contour>
    <contour>
      <point x="12" y="460" type="line"/>
      <point x="375" y="460" type="line"/>
      <point x="375" y="458" type="line"/>
      <point x="12" y="458" type="line"/>
    </contour>
    <contour>
      <point x="442" y="730" type="line"/>
      <point x="582" y="770" type="line"/>
      <point x="582" y="0" type="line"/>
      <point x="442" y="0" type="line"/>
    </contour>
    <contour>
      <point x="485" y="656" type="curve"/>
      <point x="479" y="704"/>
      <point x="433" y="757"/>
      <point x="354" y="757" type="curve" smooth="yes"/>
      <point x="264" y="757"/>
      <point x="238" y="667"/>
      <point x="238" y="540" type="curve" smooth="yes"/>
      <point x="238" y="0" type="line"/>
      <point x="102" y="0" type="line"/>
      <point x="102" y="512" type="line" smooth="yes"/>
      <point x="102" y="653"/>
      <point x="205" y="760"/>
      <point x="350" y="760" type="curve" smooth="yes"/>
      <point x="436" y="760"/>
      <point x="488" y="703"/>
      <point x="488" y="641" type="curve" smooth="yes"/>
      <point x="488" y="590"/>
      <point x="455" y="559"/>
      <point x="410" y="559" type="curve" smooth="yes"/>
      <point x="370" y="559"/>
      <point x="330" y="583"/>
      <point x="330" y="633" type="curve" smooth="yes"/>
      <point x="330" y="683"/>
      <point x="364" y="710"/>
      <point x="408" y="710" type="curve" smooth="yes"/>
      <point x="462" y="710"/>
      <point x="484" y="656"/>
    </contour>
  </outline>
</glyph>
<glyph name="uniFB03" format="2">
  <advance width="3808"/>
  <unicode hex="FB03"/>
  <outline>
    <contour>
      <point x="1659" y="2098" type="line" smooth="yes"/>
      <point x="1659" y="2696"/>
      <point x="2077" y="3112"/>
      <point x="2794" y="3112" type="curve" smooth="yes"/>
      <point x="3228" y="3112"/>
      <point x="3461" y="2879"/>
      <point x="3461" y="2625" type="curve" smooth="yes"/>
      <point x="3461" y="2416"/>
      <point x="3330" y="2289"/>
      <point x="3146" y="2289" type="curve" smooth="yes"/>
      <point x="2978" y="2289"/>
      <point x="2814" y="2398"/>
      <point x="2814" y="2593" type="curve" smooth="yes"/>
      <point x="2814" y="2790"/>
      <point x="2962" y="2907"/>
      <point x="3134" y="2907" type="curve" smooth="yes"/>
      <point x="3312" y="2907"/>
      <point x="3419" y="2806"/>
      <point x="3446" y="2683" type="curve"/>
      <point x="3403" y="2922"/>
      <point x="3179" y="3102"/>
      <point x="2794" y="3102" type="curve" smooth="yes"/>
      <point x="2344" y="3102"/>
      <point x="2212" y="2732"/>
      <point x="2212" y="2212" type="curve" smooth="yes"/>
      <point x="2212" y="0" type="line"/>
      <point x="1659" y="0" type="line"/>
    </contour>
    <contour>
      <point x="51" y="8" type="line"/>
      <point x="3738" y="8" type="line"/>
      <point x="3738" y="0" type="line"/>
      <point x="51" y="0" type="line"/>
    </contour>
    <contour>
      <point x="420" y="1892" type="line" smooth="yes"/>
      <point x="420" y="2465"/>
      <point x="858" y="2908"/>
      <point x="1472" y="2908" type="curve" smooth="yes"/>
      <point x="1824" y="2908"/>
      <point x="2079" y="2654"/>
      <point x="2079" y="2421" type="curve" smooth="yes"/>
      <point x="2079" y="2212"/>
      <point x="1947" y="2085"/>
      <point x="1763" y="2085" type="curve" smooth="yes"/>
      <point x="1599" y="2085"/>
      <point x="1431" y="2192"/>
      <point x="1431" y="2393" type="curve" smooth="yes"/>
      <point x="1431" y="2594"/>
      <point x="1569" y="2705"/>
      <point x="1741" y="2705" type="curve" smooth="yes"/>
      <point x="1901" y="2705"/>
      <point x="2022" y="2596"/>
      <point x="2038" y="2541" type="curve"/>
      <point x="1983" y="2711"/>
      <point x="1776" y="2896"/>
      <point x="1493" y="2896" type="curve" smooth="yes"/>
      <point x="1165" y="2896"/>
      <point x="972" y="2528"/>
      <point x="972" y="2008" type="curve" smooth="yes"/>
      <point x="972" y="0" type="line"/>
      <point x="420" y="0" type="line"/>
    </contour>
    <contour>
      <point x="2878" y="1876" type="line"/>
      <point x="51" y="1876" type="line"/>
      <point x="51" y="1884" type="line"/>
      <point x="3451" y="1884" type="line"/>
      <point x="3451" y="0" type="line"/>
      <point x="2878" y="0" type="line"/>
    </contour>
  </outline>
</glyph>
<glyph name="uniFB04" format="2">
  <advance width="4094"/>
  <unicode hex="FB04"/>
  <outline>
    <contour>
      <point x="66" y="8" type="line"/>
      <point x="4009" y="8" type="line"/>
      <point x="4009" y="0" type="line"/>
      <point x="66" y="0" type="line"/>
    </contour>
    <contour>
      <point x="66" y="1884" type="line"/>
      <point x="2831" y="1884" type="line"/>
      <point x="2831" y="1876" type="line"/>
      <point x="66" y="1876" type="line"/>
    </contour>
    <contour>
      <point x="3108" y="2990" type="line"/>
      <point x="3681" y="3154" type="line"/>
      <point x="3681" y="0" type="line"/>
      <point x="3108" y="0" type="line"/>
    </contour>
    <contour>
      <point x="2055" y="2543" type="curve"/>
      <point x="2000" y="2713"/>
      <point x="1787" y="2898"/>
      <point x="1508" y="2898" type="curve" smooth="yes"/>
      <point x="1180" y="2898"/>
      <point x="987" y="2528"/>
      <point x="987" y="2008" type="curve" smooth="yes"/>
      <point x="987" y="0" type="line"/>
      <point x="435" y="0" type="line"/>
      <point x="435" y="1892" type="line" smooth="yes"/>
      <point x="435" y="2467"/>
      <point x="873" y="2908"/>
      <point x="1487" y="2908" type="curve" smooth="yes"/>
      <point x="1839" y="2908"/>
      <point x="2094" y="2654"/>
      <point x="2094" y="2421" type="curve" smooth="yes"/>
      <point x="2094" y="2212"/>
      <point x="1962" y="2085"/>
      <point x="1778" y="2085" type="curve" smooth="yes"/>
      <point x="1614" y="2085"/>
      <point x="1446" y="2192"/>
      <point x="1446" y="2393" type="curve" smooth="yes"/>
      <point x="1446" y="2594"/>
      <point x="1584" y="2705"/>
      <point x="1756" y="2705" type="curve" smooth="yes"/>
      <point x="1895" y="2705"/>
      <point x="2039" y="2598"/>
    </contour>
    <contour>
      <point x="3273" y="2706" type="curve"/>
      <point x="3234" y="2927"/>
      <point x="3019" y="3104"/>
      <point x="2747" y="3104" type="curve" smooth="yes"/>
      <point x="2378" y="3104"/>
      <point x="2268" y="2732"/>
      <point x="2268" y="2212" type="curve" smooth="yes"/>
      <point x="2268" y="0" type="line"/>
      <point x="1715" y="0" type="line"/>
      <point x="1715" y="2098" type="line" smooth="yes"/>
      <point x="1715" y="2675"/>
      <point x="2133" y="3112"/>
      <point x="2727" y="3112" type="curve" smooth="yes"/>
      <point x="3079" y="3112"/>
      <point x="3292" y="2879"/>
      <point x="3292" y="2625" type="curve" smooth="yes"/>
      <point x="3292" y="2416"/>
      <point x="3161" y="2289"/>
      <point x="2977" y="2289" type="curve" smooth="yes"/>
      <point x="2813" y="2289"/>
      <point x="2644" y="2388"/>
      <point x="2644" y="2593" type="curve" smooth="yes"/>
      <point x="2644" y="2798"/>
      <point x="2783" y="2911"/>
      <point x="2964" y="2911" type="curve" smooth="yes"/>
      <point x="3184" y="2911"/>
      <point x="3269" y="2706"/>
    </contour>
  </outline>
</glyph>
<glyph name="J.alt" format="2">
  <advance width="633"/>
  <outline>
    <contour>
      <point x="238" y="750" type="line"/>
      <point x="618" y="750" type="line"/>
      <point x="618" y="748" type="line"/>
      <point x="238" y="748" type="line"/>
    </contour>
    <contour>
      <point x="364" y="750" type="line"/>
      <point x="518" y="750" type="line"/>
      <point x="518" y="225" type="line"/>
      <point x="488" y="85"/>
      <point x="404" y="-20"/>
      <point x="228" y="-20" type="curve" smooth="yes"/>
      <point x="96" y="-20"/>
      <point x="18" y="75"/>
      <point x="18" y="165" type="curve" smooth="yes"/>
      <point x="18" y="242"/>
      <point x="69" y="285"/>
      <point x="124" y="285" type="curve" smooth="yes"/>
      <point x="174" y="285"/>
      <point x="216" y="252"/>
      <point x="216" y="194" type="curve" smooth="yes"/>
      <point x="216" y="144"/>
      <point x="174" y="102"/>
      <point x="120" y="102" type="curve" smooth="yes"/>
      <point x="70" y="102"/>
      <point x="32" y="126"/>
      <point x="22" y="156" type="curve"/>
      <point x="29" y="60"/>
      <point x="114" y="-16"/>
      <point x="218" y="-16" type="curve" smooth="yes"/>
      <point x="324" y="-16"/>
      <point x="364" y="80"/>
      <point x="364" y="220" type="curve" smooth="yes"/>
    </contour>
  </outline>
</glyph>
<glyph name="R.alt" format="2">
  <advance width="2975"/>
  <outline>
    <contour>
      <point x="1501.5" y="1572" type="curve" smooth="yes"/>
      <point x="805.5" y="1572" type="line"/>
      <point x="805.5" y="1582" type="line"/>
      <point x="1399.5" y="1582" type="line" smooth="yes"/>
      <point x="1793.5" y="1582"/>
      <point x="1993.5" y="1827"/>
      <point x="1993.5" y="2314" type="curve" smooth="yes"/>
      <point x="1993.5" y="2801"/>
      <point x="1793.5" y="3064"/>
      <point x="1399.5" y="3064" type="curve" smooth="yes"/>
      <point x="68.5" y="3064" type="line"/>
      <point x="68.5" y="3072" type="line"/>
      <point x="1501.5" y="3072" type="line" smooth="yes"/>
      <point x="2181.5" y="3072"/>
      <point x="2648.5" y="2846"/>
      <point x="2648.5" y="2314" type="curve" smooth="yes"/>
      <point x="2648.5" y="1782"/>
      <point x="2222.5" y="1572"/>
    </contour>
    <contour>
      <point x="68.5" y="8" type="line"/>
      <point x="1522.5" y="8" type="line"/>
      <point x="1522.5" y="0" type="line"/>
      <point x="68.5" y="0" type="line"/>
    </contour>
    <contour>
      <point x="477.5" y="3072" type="line"/>
      <point x="1112.5" y="3072" type="line"/>
      <point x="1112.5" y="0" type="line"/>
      <point x="477.5" y="0" type="line"/>
    </contour>
    <contour>
      <point x="2935.5" y="0" type="line"/>
      <point x="2869.5" y="0"/>
      <point x="2633.5" y="0"/>
      <point x="2485.5" y="0" type="curve" smooth="yes"/>
      <point x="1408.5" y="0"/>
      <point x="2386.5" y="1572"/>
      <point x="1379.5" y="1572" type="curve" smooth="yes"/>
      <point x="805.5" y="1572" type="line"/>
      <point x="805.5" y="1582" type="line"/>
      <point x="1707.5" y="1582" type="line" smooth="yes"/>
      <point x="3091.5" y="1582"/>
      <point x="2267.5" y="8"/>
      <point x="2791.5" y="8" type="curve" smooth="yes"/>
      <point x="2877.5" y="8"/>
      <point x="2877.5" y="8"/>
      <point x="2935.5" y="8" type="curve"/>
    </contour>
  </outline>
</glyph>
<glyph name="fj.lig" format="2">
  <advance width="2531"/>
  <outline>
    <contour>
      <point x="76" y="8" type="line"/>
      <point x="1377" y="8" type="line"/>
      <point x="1377" y="0" type="line"/>
      <point x="76" y="0" type="line"/>
    </contour>
    <contour>
      <point x="2216" y="-50" type="line" smooth="yes"/>
      <point x="2216" y="-586"/>
      <point x="1901" y="-1064"/>
      <point x="1328" y="-1064" type="curve" smooth="yes"/>
      <point x="955" y="-1064"/>
      <point x="701" y="-863"/>
      <point x="701" y="-588" type="curve" smooth="yes"/>
      <point x="701" y="-379"/>
      <point x="852" y="-241"/>
      <point x="1036" y="-241" type="curve" smooth="yes"/>
      <point x="1200" y="-241"/>
      <point x="1368" y="-340"/>
      <point x="1368" y="-545" type="curve" smooth="yes"/>
      <point x="1368" y="-750"/>
      <point x="1209" y="-857"/>
      <point x="1028" y="-857" type="curve" smooth="yes"/>
      <point x="866" y="-857"/>
      <point x="748" y="-748"/>
      <point x="711" y="-629" type="curve"/>
      <point x="733" y="-871"/>
      <point x="975" y="-1050"/>
      <point x="1286" y="-1050" type="curve" smooth="yes"/>
      <point x="1716" y="-1050"/>
      <point x="1643" y="-438"/>
      <point x="1643" y="82" type="curve" smooth="yes"/>
      <point x="1643" y="1876" type="line"/>
      <point x="76" y="1876" type="line"/>
      <point x="76" y="1884" type="line"/>
      <point x="2216" y="1884" type="line"/>
    </contour>
    <contour>
      <point x="2185" y="2745" type="curve"/>
      <point x="2128" y="2919"/>
      <point x="1949" y="3102"/>
      <point x="1558" y="3102" type="curve" smooth="yes"/>
      <point x="1128" y="3102"/>
      <point x="997" y="2732"/>
      <point x="997" y="2212" type="curve" smooth="yes"/>
      <point x="997" y="0" type="line"/>
      <point x="445" y="0" type="line"/>
      <point x="445" y="2098" type="line" smooth="yes"/>
      <point x="445" y="2696"/>
      <point x="841" y="3112"/>
      <point x="1558" y="3112" type="curve" smooth="yes"/>
      <point x="1992" y="3112"/>
      <point x="2226" y="2879"/>
      <point x="2226" y="2625" type="curve" smooth="yes"/>
      <point x="2226" y="2416"/>
      <point x="2096" y="2289"/>
      <point x="1912" y="2289" type="curve" smooth="yes"/>
      <point x="1748" y="2289"/>
      <point x="1580" y="2388"/>
      <point x="1580" y="2593" type="curve" smooth="yes"/>
      <point x="1580" y="2798"/>
      <point x="1739" y="2907"/>
      <point x="1905" y="2907" type="curve" smooth="yes"/>
      <point x="2042" y="2907"/>
      <point x="2138" y="2827"/>
    </contour>
  </outline>
</glyph>
